<svg width="285" height="209" viewBox="0 0 285 209" fill="none" xmlns="http://www.w3.org/2000/svg">
<path d="M111.399 95.103H159.924V110.613H111.399V95.103ZM111.399 127.236H159.924V142.739H111.399V127.236ZM111.399 159.354H159.924V174.856H111.399V159.354Z" fill="#E2231A"/>
<path d="M174.83 95.103H223.356V110.613H174.829L174.83 95.103ZM210.647 64.836H196.857L194.527 83.773H203.269L210.647 64.836ZM174.83 127.236H223.356V142.739H174.829L174.83 127.236ZM174.83 159.354H223.356V174.856H174.829L174.83 159.354Z" fill="#86754D"/>
<path d="M281.854 168.443C281.564 167.169 281.419 164.749 281.419 161.18V154.323C281.419 148.843 280.672 144.773 279.179 142.103C277.679 139.435 275.226 136.293 271.631 134.843C275.928 133.36 279.006 130.823 280.873 127.237C282.736 123.649 283.583 121.087 283.583 117.373C283.583 114.297 283.098 111.56 282.143 109.156C281.183 106.753 279.881 104.56 278.227 102.58C276.241 100.176 273.811 98.358 270.951 97.12C268.081 95.88 263.991 95.212 258.664 95.105H237.714V110.483H255.286C258.626 110.483 261.136 110.945 262.808 111.863C265.783 113.488 267.248 115.447 267.248 118.8C267.248 121.577 265.734 124.353 262.66 125.836C260.916 126.678 258.314 127.108 254.834 127.108H237.712V142.608H253.222C257.739 142.608 260.83 143.438 262.484 145.1C264.13 146.763 264.984 150.084 265.054 155.068L265.16 163.936C265.197 166.234 265.426 168.479 265.845 170.67C266.053 171.73 266.405 173.13 266.903 174.86H284.853V172.9C283.273 171.94 282.279 170.456 281.853 168.443H281.854Z" fill="#2D7050"/>
<path fill-rule="evenodd" clip-rule="evenodd" d="M60.435 23.859V20.976H39.169V23.859L38.809 23.949C36.049 24.636 33.449 25.586 31.011 26.749C28.483 27.957 26.123 29.409 23.944 31.059C21.684 32.772 19.614 34.701 17.739 36.799C15.806 38.966 14.079 41.321 12.562 43.822L12.504 43.922C12.209 43.404 11.654 43.058 11.021 43.058C10.083 43.058 9.318 43.828 9.318 44.768C9.318 45.674 10.028 46.423 10.922 46.476L10.992 46.721L7.72201 57.367H6.85201V63.964H5.922C5.126 63.964 4.47501 64.619 4.47501 65.417V70.717C4.47501 71.517 5.125 72.169 5.922 72.169H6.85201V78.759H92.754V72.169H93.689C94.479 72.169 95.135 71.519 95.135 70.716V65.416C95.135 64.618 94.478 63.963 93.69 63.963H92.756V57.367H91.886L88.617 46.722L88.69 46.477C89.576 46.423 90.29 45.675 90.29 44.769C90.29 43.829 89.527 43.059 88.583 43.059C87.951 43.059 87.401 43.409 87.105 43.924L87.039 43.824C85.521 41.322 83.797 38.966 81.859 36.801C79.997 34.701 77.929 32.773 75.663 31.059C73.479 29.409 71.123 27.959 68.596 26.751C66.153 25.587 63.551 24.637 60.789 23.949L60.434 23.859H60.435ZM62.713 162.292C62.266 159.506 61.873 150.119 59.673 148.916C60.393 149.076 60.713 149.146 61.445 148.883C62.2 148.611 62.931 149.229 63.16 150.54C63.62 149.65 64.39 149.502 65.04 149.93C65.86 150.478 65.606 151.447 66.534 152.18C66.279 153.124 66.341 154.467 65.762 154.883C65.126 155.357 64.367 155.279 63.644 154.293C64.44 156.565 65.831 157.529 67.957 156.107C69.957 157.53 71.319 156.657 72.229 154.327C70.916 155.371 69.931 155.334 69.147 154.485C68.683 153.975 68.474 153.121 67.895 152.205C68.601 151.518 68.605 150.421 69.011 149.923C69.815 148.933 70.891 148.889 72.089 149.857C70.825 148.753 71.029 147.603 71.786 146.771C72.401 146.087 73.419 145.877 74.239 145.366C75.069 145.876 76.079 146.086 76.701 146.77C77.448 147.602 77.661 148.752 76.397 149.856C77.597 148.888 78.664 148.933 79.477 149.922C79.877 150.422 79.887 151.517 80.584 152.205C80.018 153.119 79.804 153.972 79.337 154.483C78.557 155.333 77.572 155.369 76.251 154.326C77.171 156.656 78.525 157.529 80.527 156.106C82.653 157.529 84.047 156.564 84.837 154.294C84.122 155.279 83.359 155.357 82.717 154.884C82.152 154.467 82.209 153.124 81.955 152.18C82.875 151.447 82.62 150.478 83.449 149.93C84.089 149.5 84.869 149.65 85.319 150.54C85.549 149.23 86.279 148.612 87.043 148.883C87.765 149.147 88.093 149.077 88.816 148.916C86.616 150.119 86.221 159.506 85.778 162.292H62.713V162.292ZM92.751 47.656C93.481 47.656 94.071 47.061 94.071 46.331C94.071 45.601 93.481 45.006 92.751 45.006C92.029 45.006 91.438 45.602 91.438 46.331C91.438 47.061 92.028 47.656 92.752 47.656M6.85001 47.656C6.12401 47.656 5.53 47.061 5.53 46.331C5.53 45.601 6.12401 45.006 6.85001 45.006C7.57701 45.006 8.17001 45.602 8.17001 46.331C8.17001 47.061 7.57701 47.656 6.85001 47.656ZM49.95 20.703C48.23 20.743 46.795 19.363 46.758 17.631C46.746 17.015 46.91 16.438 47.206 15.944L43.98 11.108L40.438 13.492C40.368 14.627 39.441 15.552 38.283 15.572C37.076 15.602 36.067 14.632 36.043 13.412C36.018 12.198 36.983 11.185 38.193 11.16C38.463 11.156 38.717 11.197 38.956 11.277L42.502 8.897L39.702 4.699C38.57 4.637 37.652 3.699 37.63 2.539C37.6 1.324 38.566 0.311002 39.777 0.286002C40.987 0.260002 42 1.231 42.025 2.444C42.033 2.716 41.988 2.971 41.902 3.217L44.709 7.417L48.149 5.101C48.214 3.961 49.141 3.041 50.294 3.016C51.509 2.99 52.514 3.961 52.544 5.176C52.567 6.39 51.604 7.403 50.394 7.432C50.122 7.436 49.864 7.395 49.624 7.31L46.178 9.626L49.408 14.462C49.54 14.442 49.676 14.429 49.815 14.425C51.538 14.385 52.975 15.769 53.008 17.495C53.048 19.227 51.674 20.665 49.951 20.702" fill="#86754D"/>
<path d="M97.552 168.519C97.332 168.269 97.092 168.029 96.846 167.806C95.679 166.751 94.35 166.149 92.946 166.149C91.534 166.141 90.032 166.743 88.522 168.086C88.177 168.391 87.824 168.736 87.48 169.133C87.316 169.306 87.004 169.199 86.995 168.968C86.879 167.348 86.707 165.976 86.435 164.806C86.247 163.961 85.993 163.224 85.697 162.572H62.914C62.61 163.222 62.364 163.962 62.167 164.806C61.9 165.976 61.724 167.348 61.617 168.968C61.601 169.198 61.297 169.306 61.132 169.133C60.41 168.325 59.682 167.695 58.974 167.229C57.652 166.364 56.364 166.046 55.149 166.174C53.934 166.302 52.789 166.874 51.759 167.806C51.151 168.354 50.593 169.026 50.076 169.801V207.836C52.184 206.748 55.276 205.821 58.89 204.742C62.88 203.542 67.508 202.154 72.154 200.155C79.492 197.002 86.494 191.2 91.444 183.399C94.227 179.029 96.361 174.027 97.551 168.519" fill="#2D7050"/>
<path d="M62.487 162.284L62.484 162.317C62.32 162.664 62.176 163.035 62.037 163.431C61.905 163.827 61.787 164.247 61.684 164.701C61.564 165.219 61.462 165.781 61.38 166.381C61.29 166.975 61.224 167.617 61.167 168.301L61.159 168.421L61.069 168.334C60.774 168.024 60.469 167.749 60.166 167.494C59.856 167.234 59.549 167.007 59.246 166.809C58.546 166.352 57.858 166.043 57.176 165.853C56.471 165.656 55.778 165.603 55.101 165.673C54.448 165.743 53.811 165.933 53.205 166.223C52.58 166.517 51.985 166.923 51.427 167.436C51.193 167.641 50.979 167.864 50.757 168.103C50.54 168.343 50.323 168.598 50.127 168.87L50.023 168.837V159.077H0.718994V143.016H50.023V126.946H0.718994V110.886H50.023V94.826H0.718994V78.761H98.659V158.552C98.659 160.152 98.586 161.717 98.429 163.249C98.282 164.823 98.044 166.364 97.749 167.865L97.725 167.972L97.659 167.894C97.577 167.816 97.495 167.734 97.421 167.659C97.339 167.581 97.265 167.506 97.183 167.436C96.543 166.854 95.853 166.406 95.131 166.1C94.433 165.803 93.703 165.647 92.947 165.643C92.167 165.643 91.363 165.808 90.55 166.166C89.77 166.504 88.982 167.016 88.186 167.712C88.078 167.807 87.964 167.909 87.866 168.012C87.75 168.119 87.643 168.222 87.536 168.334L87.454 168.42L87.446 168.3C87.389 167.617 87.323 166.974 87.233 166.38C87.151 165.78 87.043 165.22 86.921 164.7C86.815 164.205 86.683 163.744 86.535 163.315C86.378 162.885 86.215 162.498 86.033 162.123L86.025 162.103V162.095C86.075 161.79 86.115 161.435 86.155 161.045L86.295 159.738C86.295 159.714 86.305 159.688 86.305 159.664C86.345 159.234 86.395 158.781 86.445 158.32V158.312C86.445 158.304 86.452 158.296 86.452 158.279V158.234C86.657 156.384 86.912 154.298 87.298 152.584C87.692 150.861 88.208 149.501 88.923 149.106C88.981 149.076 89.005 149.023 89.005 148.966C89.005 148.926 88.997 148.883 88.989 148.85C88.973 148.81 88.956 148.772 88.923 148.747C88.883 148.707 88.825 148.681 88.767 148.697C88.595 148.735 88.447 148.767 88.307 148.793C88.177 148.816 88.044 148.833 87.921 148.833C87.806 148.841 87.691 148.825 87.561 148.8C87.428 148.776 87.281 148.734 87.117 148.676C87.077 148.66 87.043 148.652 87.01 148.636C86.97 148.626 86.928 148.618 86.895 148.618C86.723 148.585 86.558 148.588 86.395 148.635C86.238 148.675 86.075 148.755 85.935 148.87C85.795 148.98 85.672 149.113 85.557 149.282C85.442 149.446 85.344 149.635 85.27 149.854C85.27 149.87 85.262 149.879 85.254 149.908L85.228 149.99L85.154 149.928C85.064 149.825 84.957 149.742 84.851 149.672C84.744 149.606 84.621 149.557 84.506 149.524C84.342 149.484 84.169 149.466 83.996 149.484C83.826 149.508 83.661 149.561 83.496 149.644C83.463 149.664 83.438 149.674 83.406 149.69C83.381 149.706 83.356 149.723 83.324 149.747V149.746C83.094 149.9 82.938 150.081 82.814 150.274C82.7 150.468 82.618 150.678 82.528 150.896C82.462 151.086 82.388 151.276 82.274 151.466C82.167 151.662 82.019 151.844 81.814 152.009C81.789 152.029 81.764 152.075 81.748 152.124C81.732 152.164 81.732 152.214 81.74 152.244C81.78 152.396 81.806 152.557 81.84 152.717L81.913 153.229C81.97 153.609 82.019 153.992 82.125 154.317C82.225 154.637 82.355 154.902 82.585 155.067C82.79 155.215 82.995 155.314 83.217 155.364C83.422 155.404 83.637 155.401 83.857 155.339L83.947 155.315C83.98 155.299 84.013 155.29 84.037 155.275L84.111 155.355C84.095 155.377 84.078 155.405 84.061 155.435C84.045 155.463 84.029 155.488 84.011 155.512C83.856 155.742 83.701 155.932 83.519 156.092C83.347 156.245 83.159 156.362 82.961 156.442C82.764 156.517 82.541 156.558 82.305 156.55C82.085 156.55 81.845 156.5 81.591 156.41C81.443 156.36 81.287 156.294 81.131 156.212C80.975 156.129 80.811 156.032 80.647 155.928C80.622 155.913 80.573 155.9 80.524 155.9C80.474 155.904 80.426 155.912 80.402 155.933C80.18 156.085 79.967 156.213 79.762 156.313C79.549 156.411 79.352 156.485 79.162 156.526L79.106 156.542V154.992L79.122 154.976C79.188 154.936 79.252 154.876 79.312 154.819C79.377 154.762 79.442 154.705 79.5 154.639C79.64 154.482 79.763 154.309 79.86 154.112C79.976 153.915 80.074 153.7 80.18 153.465C80.263 153.288 80.345 153.103 80.444 152.913C80.544 152.719 80.65 152.523 80.774 152.333C80.797 152.291 80.806 152.241 80.797 152.183C80.789 152.133 80.773 152.08 80.739 152.051C80.559 151.871 80.419 151.647 80.319 151.413C80.213 151.183 80.139 150.947 80.057 150.716C80 150.536 79.95 150.358 79.877 150.196C79.811 150.048 79.737 149.9 79.639 149.781C79.557 149.686 79.475 149.591 79.393 149.505C79.303 149.427 79.213 149.357 79.121 149.291L79.105 149.271V132.803H87.559C88.529 132.803 89.399 132.931 90.153 133.149C90.973 133.384 91.671 133.719 92.213 134.097V122.691C91.671 123.066 90.973 123.404 90.153 123.639C89.398 123.853 88.528 123.985 87.559 123.985H79.105V110.658H84.275C85.245 110.658 86.115 110.79 86.87 111.012C87.7 111.242 88.39 111.582 88.938 111.956V100.549C88.388 100.929 87.698 101.262 86.87 101.495C86.115 101.712 85.245 101.845 84.276 101.845H79.106V90.913C79.106 89.943 79.228 89.075 79.45 88.311C79.68 87.483 80.016 86.793 80.386 86.238H68.086C68.46 86.792 68.792 87.483 69.026 88.311C69.239 89.076 69.379 89.943 69.379 90.913V101.843H64.196C63.232 101.843 62.362 101.713 61.598 101.493C60.778 101.261 60.088 100.927 59.538 100.548V111.956C60.088 111.581 60.778 111.243 61.598 111.012C62.361 110.79 63.231 110.658 64.196 110.658H69.379V123.986H60.769C59.735 123.986 58.849 123.836 58.089 123.589C57.371 123.359 56.772 123.045 56.263 122.691V134.096C56.773 133.743 57.371 133.426 58.089 133.191C58.849 132.948 59.735 132.804 60.769 132.804H69.379V149.274L69.355 149.291C69.265 149.353 69.175 149.427 69.088 149.511C69.002 149.591 68.918 149.683 68.838 149.778C68.743 149.898 68.666 150.046 68.6 150.194C68.534 150.354 68.485 150.532 68.423 150.714C68.345 150.944 68.271 151.179 68.165 151.41C68.058 151.645 67.927 151.867 67.742 152.048C67.712 152.078 67.692 152.131 67.682 152.18C67.679 152.238 67.682 152.287 67.708 152.33C67.835 152.526 67.942 152.716 68.036 152.91C68.13 153.1 68.22 153.285 68.303 153.462C68.41 153.697 68.509 153.912 68.616 154.109C68.726 154.307 68.836 154.479 68.981 154.636C69.041 154.698 69.104 154.76 69.165 154.816C69.223 154.871 69.288 154.924 69.355 154.966L69.378 154.99V156.54L69.312 156.524C69.118 156.479 68.922 156.408 68.72 156.31C68.514 156.21 68.3 156.083 68.08 155.93C68.05 155.91 68.006 155.902 67.957 155.898C67.907 155.898 67.859 155.91 67.827 155.928C67.662 156.03 67.507 156.128 67.35 156.211C67.19 156.293 67.038 156.359 66.89 156.408C66.636 156.498 66.397 156.548 66.168 156.548C65.934 156.558 65.718 156.516 65.52 156.442C65.323 156.359 65.13 156.244 64.958 156.092C64.781 155.932 64.618 155.742 64.468 155.512C64.453 155.486 64.436 155.462 64.416 155.432C64.4 155.404 64.383 155.384 64.371 155.355L64.436 155.272C64.469 155.288 64.502 155.297 64.531 155.312C64.561 155.322 64.591 155.329 64.626 155.337C64.839 155.399 65.056 155.403 65.266 155.362C65.484 155.312 65.693 155.212 65.89 155.065C66.12 154.9 66.258 154.635 66.357 154.315C66.46 153.989 66.513 153.605 66.57 153.227C66.595 153.054 66.61 152.881 66.644 152.717C66.669 152.557 66.702 152.395 66.744 152.242C66.751 152.212 66.744 152.164 66.727 152.122C66.719 152.074 66.694 152.028 66.665 152.008C66.46 151.843 66.312 151.662 66.201 151.464C66.095 151.274 66.021 151.084 65.947 150.894C65.865 150.676 65.779 150.464 65.66 150.272C65.544 150.078 65.388 149.897 65.15 149.745L65.072 149.693C65.047 149.676 65.019 149.668 64.986 149.647C64.822 149.565 64.649 149.511 64.476 149.487C64.313 149.47 64.14 149.487 63.968 149.527C63.858 149.56 63.738 149.609 63.631 149.675C63.521 149.745 63.419 149.828 63.321 149.931L63.254 149.993L63.229 149.911C63.213 149.881 63.221 149.899 63.221 149.881L63.205 149.857C63.131 149.639 63.032 149.449 62.925 149.284C62.811 149.118 62.688 148.982 62.548 148.871C62.4 148.756 62.248 148.677 62.084 148.636C61.92 148.59 61.752 148.586 61.579 148.619C61.546 148.619 61.513 148.627 61.473 148.636C61.436 148.652 61.399 148.66 61.366 148.676C61.193 148.736 61.054 148.776 60.923 148.801C60.791 148.826 60.673 148.841 60.553 148.834C60.431 148.834 60.308 148.818 60.173 148.794C60.033 148.768 59.889 148.734 59.716 148.698C59.654 148.682 59.593 148.706 59.56 148.748C59.526 148.772 59.506 148.808 59.49 148.85C59.476 148.883 59.468 148.924 59.473 148.966C59.477 149.023 59.503 149.076 59.559 149.106C60.369 149.551 60.929 151.256 61.331 153.33C61.737 155.394 61.987 157.826 62.185 159.738C62.235 160.258 62.288 160.735 62.332 161.176C62.382 161.602 62.43 161.976 62.48 162.282M50.074 191.196V175.133H3.71399C6.09399 181.413 9.73999 186.837 14.072 191.196H50.074V191.196Z" fill="#E2231A"/>
<path d="M7.127 78.482H92.477V75.546H7.127V78.482ZM79.437 154.788V156.388C79.724 156.284 80.037 156.118 80.372 155.88C80.446 155.83 80.61 155.827 80.684 155.88C81.012 156.094 81.324 156.26 81.611 156.358C82.111 156.535 82.563 156.538 82.941 156.383C83.335 156.233 83.671 155.921 83.967 155.476L84.067 155.324C84 155.354 83.943 155.378 83.869 155.394C83.409 155.526 82.959 155.402 82.556 155.11C82.079 154.76 81.972 154 81.856 153.227C81.816 152.897 81.766 152.552 81.684 152.26C81.66 152.173 81.709 152.017 81.784 151.967C82.184 151.642 82.341 151.247 82.481 150.875C82.653 150.435 82.809 150.018 83.294 149.701C83.351 149.664 83.409 149.631 83.466 149.601C83.811 149.421 84.172 149.379 84.526 149.474C84.771 149.544 85.001 149.676 85.198 149.89L85.222 149.84C85.386 149.388 85.616 149.05 85.895 148.827C86.198 148.592 86.551 148.497 86.912 148.563C86.986 148.575 87.06 148.596 87.132 148.625C87.462 148.745 87.692 148.785 87.922 148.782C88.159 148.778 88.406 148.72 88.75 148.642C89.02 148.585 89.185 149.025 88.947 149.157C87.543 149.932 86.911 154.543 86.509 158.243C86.509 158.276 86.501 158.301 86.493 158.33C86.443 158.82 86.393 159.298 86.353 159.748C86.253 160.68 86.163 161.504 86.083 162.106C86.451 162.844 86.747 163.696 86.977 164.686C87.223 165.733 87.387 166.928 87.494 168.296C87.706 168.076 87.928 167.866 88.149 167.678C89.774 166.231 91.409 165.593 92.942 165.593C94.494 165.593 95.946 166.253 97.218 167.393C97.374 167.538 97.53 167.695 97.686 167.859C98.286 164.893 98.606 161.789 98.606 158.555V79.045H50.076V168.836C50.482 168.296 50.916 167.81 51.386 167.389C52.493 166.383 53.753 165.761 55.086 165.617C56.429 165.477 57.841 165.824 59.269 166.759C59.879 167.163 60.492 167.665 61.104 168.292C61.219 166.924 61.384 165.728 61.621 164.682C61.835 163.775 62.097 162.984 62.425 162.292C62.335 161.682 62.237 160.792 62.131 159.745C61.737 155.913 61.131 150.032 59.537 149.155C59.299 149.022 59.463 148.581 59.73 148.639C60.07 148.717 60.32 148.775 60.555 148.779C60.789 148.783 61.019 148.742 61.343 148.622C61.425 148.592 61.499 148.572 61.573 148.56C61.933 148.494 62.279 148.59 62.583 148.824C62.865 149.046 63.099 149.384 63.259 149.838C63.267 149.855 63.271 149.872 63.279 149.888C63.485 149.674 63.714 149.542 63.961 149.472C64.311 149.377 64.675 149.418 65.015 149.6C65.068 149.63 65.125 149.662 65.185 149.7C65.668 150.016 65.825 150.432 65.995 150.873C66.145 151.243 66.291 151.64 66.702 151.965C66.768 152.015 66.817 152.171 66.797 152.258C66.719 152.55 66.67 152.896 66.62 153.226C66.513 154.001 66.407 154.759 65.922 155.109C65.524 155.403 65.077 155.526 64.609 155.394C64.543 155.378 64.479 155.354 64.419 155.324C64.449 155.378 64.479 155.427 64.509 155.476C64.805 155.921 65.146 156.234 65.536 156.383C65.919 156.54 66.366 156.535 66.876 156.358C67.162 156.258 67.47 156.093 67.798 155.878C67.876 155.826 68.04 155.83 68.114 155.878C68.444 156.11 68.754 156.275 69.041 156.382V154.786H69.054C69.017 154.748 68.976 154.711 68.944 154.666C68.652 154.352 68.467 153.948 68.244 153.483C68.089 153.133 67.908 152.745 67.658 152.35C67.605 152.26 67.621 152.082 67.703 152.004C68.056 151.65 68.22 151.147 68.363 150.694C68.487 150.326 68.59 149.988 68.795 149.737C68.872 149.647 68.958 149.557 69.04 149.474V133.136H60.767C59.767 133.136 58.912 133.276 58.19 133.512C57.464 133.742 56.86 134.072 56.36 134.427C56.187 134.555 55.925 134.42 55.925 134.201V122.583C55.925 122.365 56.188 122.229 56.36 122.353C56.86 122.715 57.464 123.036 58.19 123.271C58.912 123.506 59.766 123.646 60.767 123.646H69.04V110.996H64.197C63.253 110.996 62.417 111.123 61.685 111.329C60.855 111.564 60.175 111.909 59.641 112.289C59.461 112.413 59.201 112.281 59.201 112.062V100.442C59.201 100.222 59.461 100.088 59.641 100.215C60.175 100.598 60.856 100.939 61.685 101.175C62.415 101.382 63.253 101.508 64.197 101.508H69.04V90.919C69.04 89.977 68.917 89.134 68.704 88.399C68.469 87.571 68.132 86.879 67.751 86.343C67.624 86.166 67.759 85.903 67.977 85.903H80.49C80.712 85.903 80.843 86.166 80.712 86.343C80.334 86.879 79.998 87.571 79.76 88.398C79.555 89.133 79.432 89.976 79.432 90.918V101.508H84.277C85.214 101.508 86.059 101.383 86.781 101.175C87.611 100.939 88.301 100.597 88.833 100.215C89.013 100.087 89.268 100.222 89.268 100.441V112.061C89.268 112.281 89.015 112.411 88.834 112.289C88.301 111.909 87.611 111.564 86.782 111.329C86.06 111.123 85.214 110.995 84.279 110.995H79.439V123.646H87.565C88.5 123.646 89.338 123.523 90.068 123.313C90.896 123.078 91.585 122.736 92.111 122.353C92.291 122.229 92.554 122.366 92.554 122.583V134.201C92.554 134.419 92.291 134.555 92.111 134.428C91.586 134.044 90.896 133.708 90.067 133.472C89.337 133.266 88.497 133.138 87.563 133.138H79.437V149.468C79.519 149.551 79.609 149.646 79.691 149.741C79.888 149.991 79.995 150.331 80.118 150.697C80.258 151.152 80.423 151.654 80.784 152.009C80.858 152.087 80.882 152.264 80.824 152.355C80.579 152.742 80.398 153.135 80.234 153.488C80.021 153.954 79.832 154.358 79.544 154.671C79.504 154.717 79.471 154.754 79.43 154.791H79.438L79.437 154.788ZM78.879 156.511V155.188C78.609 155.332 78.313 155.402 77.992 155.394C77.656 155.386 77.294 155.284 76.909 155.089C77.254 155.716 77.656 156.161 78.109 156.371C78.337 156.486 78.599 156.531 78.879 156.511M69.604 155.188V156.511C69.884 156.531 70.146 156.486 70.384 156.371C70.834 156.161 71.23 155.716 71.574 155.089C71.188 155.283 70.834 155.386 70.499 155.394C70.169 155.402 69.875 155.332 69.604 155.188M78.879 149.073V132.861C78.879 132.721 79.019 132.581 79.159 132.581H87.563C88.548 132.581 89.433 132.713 90.213 132.935C90.896 133.128 91.493 133.388 91.995 133.688V123.094C91.495 123.391 90.895 123.654 90.215 123.852C89.435 124.074 88.548 124.206 87.563 124.206H79.157C79.017 124.206 78.879 124.066 78.879 123.926V110.716C78.879 110.579 79.019 110.439 79.159 110.439H84.279C85.265 110.439 86.159 110.575 86.939 110.793C87.621 110.987 88.212 111.25 88.712 111.547V100.956C88.212 101.252 87.622 101.516 86.939 101.706C86.159 101.931 85.265 102.066 84.279 102.066H79.159C79.019 102.066 78.879 101.926 78.879 101.789V90.919C78.879 89.925 79.019 89.031 79.239 88.246C79.429 87.564 79.691 86.969 79.987 86.462H68.492C68.792 86.969 69.05 87.564 69.242 88.246C69.464 89.031 69.604 89.926 69.604 90.918V101.788C69.604 101.928 69.464 102.068 69.324 102.068H64.204C63.21 102.068 62.324 101.931 61.539 101.708C60.862 101.518 60.267 101.251 59.766 100.958V111.546C60.266 111.249 60.861 110.986 61.538 110.792C62.322 110.572 63.208 110.438 64.202 110.438H69.324C69.464 110.438 69.604 110.578 69.604 110.714V123.926C69.604 124.066 69.464 124.206 69.324 124.206H60.772C59.712 124.206 58.802 124.049 58.022 123.802C57.442 123.612 56.93 123.372 56.487 123.097V133.686C56.931 133.414 57.444 133.171 58.023 132.981C58.803 132.734 59.713 132.581 60.773 132.581H69.325C69.465 132.581 69.605 132.721 69.605 132.861V149.081C69.85 148.949 70.121 148.883 70.409 148.875C70.622 148.875 70.844 148.899 71.074 148.973C70.984 148.767 70.934 148.569 70.91 148.363C70.852 147.7 71.13 147.086 71.583 146.583C72.01 146.109 72.583 145.85 73.167 145.593C73.487 145.45 73.807 145.303 74.103 145.123C74.16 145.087 74.323 145.087 74.39 145.123C74.677 145.301 75.006 145.45 75.326 145.593C75.906 145.85 76.474 146.109 76.909 146.583C77.361 147.086 77.639 147.7 77.574 148.363C77.55 148.569 77.5 148.767 77.418 148.973C77.648 148.899 77.861 148.873 78.075 148.873C78.36 148.883 78.631 148.948 78.877 149.073M49.519 169.836C49.479 169.766 49.494 169.704 49.519 169.642V159.35H1.003C1.05 162.07 1.319 164.707 1.789 167.23C2.286 169.89 2.996 172.43 3.899 174.852H49.519V169.838V169.836ZM93.029 78.48H98.882C99.022 78.48 99.169 78.62 99.169 78.76V158.55C99.169 168.192 96.354 176.73 91.913 183.703C86.898 191.589 79.806 197.47 72.378 200.668C67.7 202.675 63.051 204.076 59.048 205.271C55.22 206.421 51.99 207.389 49.938 208.539C49.88 208.564 49.831 208.576 49.778 208.572C49.741 208.567 49.7 208.554 49.668 208.538C47.608 207.388 44.381 206.42 40.556 205.27C36.551 204.075 31.906 202.674 27.226 200.663C24.822 199.63 22.458 198.319 20.184 196.745C17.954 195.2 15.809 193.411 13.816 191.392C11.598 189.149 9.56 186.622 7.781 183.85C6.084 181.196 4.617 178.315 3.449 175.23C2.504 172.723 1.761 170.086 1.244 167.333C0.756001 164.697 0.479001 161.956 0.446001 159.121C0.440001 159.105 0.440002 159.084 0.440002 159.067V78.761C0.440002 78.621 0.580001 78.481 0.720001 78.481H6.574V72.446H5.918C4.972 72.446 4.194 71.668 4.194 70.718V65.418C4.194 64.464 4.972 63.688 5.918 63.688H6.574V47.91C5.824 47.775 5.254 47.122 5.254 46.33C5.254 45.447 5.972 44.728 6.851 44.728C7.73 44.728 8.449 45.448 8.449 46.328C8.449 47.122 7.877 47.776 7.129 47.911V57.097H7.515L10.702 46.734C9.762 46.577 9.042 45.754 9.042 44.774C9.042 43.866 9.649 43.102 10.475 42.861C10.479 42.824 10.492 42.781 10.5 42.743L12.464 36.317C12.472 36.287 12.548 36.185 12.574 36.167L35.027 20.753C35.047 20.737 35.161 20.703 35.177 20.703H48.531C48.157 20.537 47.821 20.31 47.531 20.033C46.901 19.428 46.501 18.58 46.479 17.638C46.472 17.314 46.517 16.99 46.595 16.685C46.661 16.428 46.763 16.189 46.885 15.96L43.905 11.49L40.701 13.648C40.635 14.235 40.361 14.763 39.958 15.154C39.522 15.576 38.938 15.842 38.291 15.854C37.611 15.867 36.986 15.601 36.526 15.164C36.066 14.72 35.779 14.104 35.762 13.42C35.746 12.736 36.008 12.108 36.452 11.648C36.887 11.188 37.502 10.898 38.188 10.88C38.331 10.88 38.478 10.89 38.628 10.915C38.721 10.931 38.824 10.952 38.914 10.977L42.124 8.821L39.546 4.964C38.959 4.896 38.434 4.626 38.044 4.222C37.624 3.782 37.364 3.196 37.35 2.545C37.334 1.863 37.6 1.235 38.04 0.777003C38.48 0.317003 39.09 0.0230065 39.772 0.0070065C40.452 -0.0059935 41.082 0.257006 41.537 0.702006C41.992 1.14201 42.283 1.75701 42.304 2.43901C42.304 2.58701 42.296 2.736 42.271 2.879C42.255 2.981 42.234 3.07901 42.211 3.17501L44.783 7.032L47.881 4.942C47.951 4.356 48.218 3.82901 48.624 3.43701C49.059 3.01901 49.641 2.753 50.29 2.74C50.972 2.724 51.595 2.99 52.055 3.432C52.515 3.872 52.802 4.487 52.818 5.169C52.835 5.853 52.573 6.482 52.128 6.943C51.69 7.407 51.078 7.693 50.398 7.71C50.248 7.714 50.106 7.702 49.958 7.68C49.855 7.665 49.761 7.64201 49.668 7.61701L46.564 9.70201L49.544 14.162H49.589C49.651 14.155 49.725 14.149 49.811 14.149C50.743 14.129 51.604 14.495 52.236 15.099C52.868 15.707 53.266 16.556 53.286 17.493C53.308 18.433 52.942 19.298 52.343 19.931C52.031 20.256 51.658 20.521 51.243 20.704H64.414C64.444 20.704 64.554 20.739 64.571 20.754L87.037 36.166C87.062 36.182 87.127 36.284 87.137 36.316L89.097 42.741C89.114 42.778 89.123 42.821 89.131 42.859C89.961 43.099 90.567 43.864 90.567 44.771C90.567 45.754 89.845 46.576 88.901 46.731L92.087 57.096H92.48V47.91C91.725 47.774 91.16 47.12 91.16 46.328C91.16 45.446 91.873 44.728 92.75 44.728C93.63 44.728 94.35 45.446 94.35 46.328C94.35 47.121 93.777 47.775 93.03 47.91V63.686H93.686C94.629 63.686 95.4 64.463 95.4 65.416V70.716C95.4 71.666 94.628 72.444 93.685 72.444H93.028V78.481L93.029 78.48ZM97.559 168.517C97.329 168.267 97.092 168.027 96.846 167.804C95.679 166.749 94.35 166.147 92.946 166.147C91.534 166.143 90.032 166.741 88.522 168.087C88.169 168.389 87.824 168.735 87.472 169.131C87.315 169.308 87.002 169.197 86.987 168.961C86.889 167.351 86.709 165.974 86.437 164.808C86.241 163.955 86.003 163.218 85.699 162.57H62.909C62.609 163.217 62.364 163.955 62.171 164.808C61.901 165.974 61.723 167.35 61.617 168.962C61.601 169.197 61.293 169.308 61.132 169.132C60.41 168.322 59.688 167.697 58.974 167.222C57.657 166.362 56.364 166.044 55.149 166.172C53.939 166.296 52.785 166.872 51.759 167.804C51.156 168.356 50.585 169.024 50.079 169.799V207.834C52.189 206.746 55.272 205.824 58.887 204.74C62.877 203.54 67.51 202.156 72.157 200.153C79.494 197 86.495 191.193 91.453 183.401C94.236 179.024 96.37 174.025 97.56 168.516M62.504 157.936H85.987C86.34 154.746 86.882 150.968 87.997 149.336H87.932C87.637 149.341 87.349 149.291 86.947 149.146C86.907 149.131 86.865 149.118 86.817 149.11C86.61 149.073 86.413 149.13 86.241 149.267C86.044 149.42 85.871 149.677 85.741 150.03C85.681 150.195 85.633 150.38 85.591 150.587C85.551 150.83 85.191 150.892 85.075 150.669C85.042 150.607 85.009 150.541 84.977 150.492C84.797 150.228 84.591 150.072 84.377 150.01C84.165 149.957 83.935 149.98 83.721 150.097C83.681 150.113 83.639 150.137 83.606 150.163C83.268 150.39 83.136 150.723 82.996 151.078C82.841 151.483 82.676 151.903 82.259 152.286C82.325 152.562 82.366 152.863 82.407 153.156C82.507 153.806 82.597 154.454 82.884 154.664C83.147 154.862 83.442 154.944 83.73 154.862C84.01 154.779 84.312 154.548 84.616 154.137C84.771 153.909 85.189 154.127 85.099 154.387C84.909 154.927 84.689 155.397 84.434 155.789C84.074 156.324 83.646 156.712 83.146 156.909C82.636 157.112 82.063 157.112 81.431 156.889C81.144 156.782 80.841 156.642 80.528 156.444C79.51 157.128 78.632 157.234 77.868 156.877C77.098 156.515 76.481 155.661 75.998 154.433C75.908 154.193 76.228 153.955 76.424 154.111C77.031 154.598 77.557 154.828 78.008 154.836C78.428 154.851 78.804 154.654 79.133 154.299C79.363 154.049 79.535 153.677 79.733 153.252C79.873 152.939 80.036 152.602 80.241 152.238C79.896 151.818 79.731 151.323 79.584 150.87C79.486 150.553 79.394 150.27 79.256 150.096C78.903 149.666 78.501 149.446 78.066 149.436C77.623 149.428 77.122 149.634 76.589 150.062C76.589 150.07 76.581 150.07 76.581 150.07L76.573 150.078C76.36 150.251 76.007 149.831 76.22 149.65C76.737 149.188 76.983 148.74 77.016 148.315C77.074 147.819 76.852 147.35 76.499 146.955C76.146 146.567 75.629 146.34 75.095 146.101C74.807 145.973 74.52 145.841 74.24 145.685C73.97 145.842 73.674 145.975 73.394 146.101C72.859 146.341 72.342 146.566 71.989 146.954C71.636 147.349 71.414 147.818 71.464 148.314C71.504 148.737 71.744 149.186 72.268 149.648C72.473 149.828 72.128 150.25 71.908 150.076C71.908 150.076 71.908 150.068 71.898 150.068V150.06C71.358 149.632 70.865 149.426 70.422 149.434C69.979 149.442 69.576 149.664 69.222 150.094C69.092 150.267 68.997 150.551 68.895 150.868C68.748 151.322 68.592 151.816 68.239 152.236C68.452 152.598 68.609 152.936 68.756 153.25C68.954 153.675 69.126 154.045 69.356 154.297C69.684 154.651 70.062 154.849 70.48 154.833C70.932 154.823 71.45 154.593 72.056 154.107C72.262 153.95 72.581 154.19 72.483 154.429C72.007 155.657 71.391 156.509 70.62 156.873C69.857 157.233 68.98 157.123 67.953 156.44C67.641 156.637 67.345 156.778 67.058 156.885C66.418 157.108 65.848 157.108 65.338 156.905C64.838 156.708 64.406 156.321 64.053 155.785C63.795 155.393 63.573 154.925 63.38 154.385C63.294 154.125 63.708 153.905 63.873 154.132C64.173 154.542 64.473 154.774 64.759 154.856C65.042 154.938 65.333 154.856 65.596 154.658C65.891 154.448 65.982 153.801 66.072 153.15C66.112 152.857 66.162 152.556 66.22 152.28C65.8 151.897 65.637 151.477 65.48 151.073C65.346 150.72 65.214 150.386 64.882 150.159C64.842 150.134 64.8 150.109 64.759 150.093C64.546 149.977 64.319 149.953 64.111 150.006C63.891 150.068 63.684 150.226 63.511 150.488C63.475 150.538 63.441 150.603 63.405 150.665C63.293 150.887 62.932 150.825 62.887 150.583C62.854 150.377 62.805 150.191 62.743 150.026C62.616 149.672 62.443 149.416 62.243 149.264C62.065 149.129 61.868 149.071 61.668 149.108C61.623 149.116 61.573 149.128 61.532 149.145C61.134 149.29 60.842 149.34 60.547 149.335H60.481C61.599 150.967 62.141 154.745 62.501 157.935M85.919 158.492H62.559C62.609 158.904 62.641 159.304 62.682 159.682C62.78 160.619 62.866 161.426 62.945 162.012H85.533C85.615 161.426 85.705 160.618 85.803 159.682C85.837 159.304 85.878 158.904 85.919 158.492ZM49.519 143.291H0.995001V158.794H49.519V143.291ZM49.519 190.924V175.414H4.112C5.238 178.318 6.638 181.042 8.249 183.552C9.985 186.259 11.967 188.724 14.124 190.924H49.519V190.924ZM49.519 191.476H14.682C16.518 193.276 18.468 194.888 20.495 196.289C22.735 197.843 25.075 199.141 27.447 200.151C32.089 202.158 36.722 203.541 40.711 204.737C44.323 205.827 47.409 206.749 49.519 207.833V191.476V191.476ZM49.519 94.543V79.04H0.995001V94.543H49.519V94.543ZM49.519 95.099H0.995001V110.609H49.519V95.099V95.099ZM49.519 111.165H0.995001V126.666H49.519V111.166V111.165ZM49.519 127.231H0.995001V142.736H49.519V127.231V127.231ZM49.946 20.421C50.726 20.409 51.431 20.071 51.94 19.544C52.445 19.011 52.75 18.29 52.732 17.501C52.716 16.711 52.379 16.003 51.849 15.496C51.324 14.989 50.605 14.686 49.817 14.703C49.769 14.703 49.707 14.706 49.634 14.713C49.56 14.718 49.494 14.726 49.449 14.735C49.371 14.747 49.223 14.681 49.174 14.613L45.948 9.777C45.875 9.66 45.912 9.467 46.023 9.392L49.467 7.075C49.511 7.045 49.659 7.025 49.717 7.042C49.819 7.079 49.93 7.108 50.045 7.127C50.151 7.143 50.265 7.151 50.39 7.151C50.915 7.134 51.39 6.90501 51.732 6.55101C52.069 6.19101 52.278 5.70701 52.266 5.17401C52.252 4.64201 52.026 4.166 51.674 3.824C51.317 3.482 50.834 3.276 50.299 3.289C49.799 3.301 49.347 3.50501 49.011 3.82901C48.674 4.15901 48.451 4.609 48.428 5.109C48.42 5.162 48.35 5.294 48.305 5.322L44.859 7.642C44.749 7.722 44.551 7.679 44.469 7.566L41.669 3.366C41.637 3.319 41.619 3.172 41.637 3.116C41.677 3.012 41.707 2.90301 41.723 2.78601C41.739 2.68201 41.747 2.569 41.743 2.446C41.731 1.916 41.505 1.43301 41.153 1.09101C40.791 0.751006 40.311 0.546001 39.781 0.558001C39.251 0.566001 38.776 0.795005 38.435 1.14801C38.099 1.50801 37.889 1.996 37.898 2.528C37.91 3.031 38.116 3.49 38.444 3.824C38.767 4.166 39.214 4.38701 39.714 4.41101C39.768 4.41501 39.896 4.491 39.928 4.533L42.728 8.736C42.805 8.85 42.768 9.04601 42.653 9.11901L39.111 11.503C39.066 11.533 38.914 11.553 38.861 11.533C38.754 11.499 38.648 11.47 38.537 11.453C38.427 11.437 38.311 11.429 38.192 11.429C37.662 11.441 37.186 11.669 36.845 12.027C36.505 12.381 36.299 12.872 36.311 13.403C36.323 13.93 36.551 14.413 36.905 14.755C37.258 15.095 37.742 15.299 38.275 15.291C38.775 15.279 39.231 15.071 39.568 14.751C39.9 14.421 40.122 13.971 40.151 13.471C40.151 13.416 40.229 13.286 40.274 13.251L43.816 10.871C43.931 10.791 44.124 10.831 44.202 10.947L47.429 15.783C47.479 15.851 47.482 16.016 47.437 16.083C47.302 16.311 47.191 16.56 47.125 16.823C47.059 17.079 47.027 17.345 47.027 17.62C47.043 18.408 47.38 19.117 47.913 19.624C48.44 20.13 49.153 20.437 49.943 20.417M79.437 44.516C76.827 44.516 74.693 46.66 74.693 49.286V57.096H84.181V49.286C84.181 47.973 83.647 46.78 82.786 45.918C81.923 45.053 80.741 44.518 79.436 44.518M80.503 44.07C81.537 44.28 82.456 44.8 83.179 45.52C84.149 46.486 84.739 47.82 84.739 49.284V57.094H85.076L88.261 46.731C87.317 46.574 86.603 45.751 86.603 44.771C86.603 44.496 86.653 44.234 86.759 43.997C83.796 39.117 80.012 34.773 75.456 31.327C71.204 28.11 66.279 25.664 60.714 24.271V47.001C60.73 47.264 60.739 47.525 60.739 47.795V57.095H60.919L66.993 42.897C65.716 42.712 64.735 41.61 64.735 40.285C64.735 38.828 65.915 37.648 67.369 37.648C68.819 37.648 69.996 38.83 69.996 40.286C69.996 41.611 69.02 42.713 67.748 42.898L73.814 57.098H74.134V49.286C74.134 46.726 75.956 44.57 78.369 44.071C77.605 43.677 77.072 42.871 77.072 41.948C77.072 40.64 78.132 39.572 79.436 39.572C80.741 39.572 81.808 40.64 81.808 41.948C81.808 42.873 81.275 43.678 80.503 44.072M84.468 57.65H7.127V60.588H92.481V57.65H84.469H84.468ZM88.58 47.575L85.658 57.099H91.51L88.58 47.576V47.575ZM49.337 21.256H43.947V38.53C45.637 37.446 47.653 36.812 49.799 36.812C51.949 36.812 53.959 37.446 55.659 38.53V21.256H49.339H49.337ZM43.387 21.256H39.444V44.264C40.184 42.098 41.578 40.234 43.388 38.914V21.256H43.387ZM38.89 21.256H35.265L12.965 36.568L11.065 42.778C11.643 42.794 12.16 43.056 12.517 43.466C15.492 38.626 19.272 34.318 23.811 30.879C28.145 27.597 33.184 25.105 38.889 23.699V21.257L38.89 21.256ZM88.532 42.778L86.636 36.568L64.333 21.258H60.713V23.701C66.413 25.106 71.458 27.598 75.791 30.881C80.331 34.319 84.106 38.627 87.085 43.467C87.438 43.057 87.955 42.797 88.53 42.779M60.157 21.258H56.212V38.913C58.022 40.233 59.417 42.099 60.156 44.263V21.257L60.157 21.258ZM60.157 57.096V47.018C59.757 41.642 55.257 37.368 49.797 37.368C44.352 37.368 39.841 41.642 39.443 47.018V57.096H60.157V57.096ZM38.889 46.998V24.272C33.317 25.666 28.39 28.11 24.147 31.326C19.587 34.773 15.809 39.116 12.847 43.998C12.942 44.235 13.002 44.496 13.002 44.771C13.002 45.754 12.284 46.576 11.342 46.731L14.522 57.096H14.859V49.286C14.859 47.822 15.456 46.486 16.419 45.521C17.141 44.801 18.067 44.281 19.101 44.071C18.331 43.677 17.798 42.871 17.798 41.948C17.798 40.64 18.862 39.572 20.165 39.572C21.468 39.572 22.531 40.64 22.531 41.948C22.531 42.871 22.001 43.678 21.231 44.071C23.641 44.569 25.467 46.725 25.467 49.286V57.096H25.787L31.847 42.898C30.583 42.713 29.602 41.611 29.602 40.286C29.602 38.829 30.78 37.649 32.232 37.649C33.677 37.649 34.86 38.829 34.86 40.286C34.86 41.611 33.88 42.713 32.61 42.898L38.677 57.098H38.857V47.796C38.857 47.526 38.873 47.26 38.89 46.998M12.32 44.188C12.232 44.122 12.21 44.058 12.22 43.998C11.967 43.603 11.522 43.342 11.017 43.342C10.231 43.342 9.593 43.982 9.593 44.772C9.593 45.562 10.231 46.202 11.017 46.202C11.803 46.202 12.447 45.562 12.447 44.772C12.447 44.562 12.4 44.365 12.32 44.188ZM87.382 43.998C87.39 44.058 87.366 44.122 87.284 44.188C87.194 44.364 87.152 44.562 87.152 44.77C87.152 45.56 87.8 46.2 88.58 46.2C89.368 46.2 90.008 45.56 90.008 44.77C90.008 43.98 89.368 43.34 88.581 43.34C88.081 43.34 87.638 43.602 87.383 43.998M67.373 43.421L61.527 57.096H73.215L67.371 43.421H67.373ZM67.373 42.366C68.513 42.366 69.448 41.433 69.448 40.286C69.448 39.139 68.513 38.2 67.372 38.2C66.227 38.2 65.296 39.137 65.296 40.285C65.296 41.433 66.226 42.365 67.372 42.365M79.438 43.765C80.438 43.765 81.244 42.945 81.244 41.945C81.244 40.941 80.44 40.127 79.438 40.127C78.445 40.127 77.632 40.941 77.632 41.947C77.632 42.947 78.445 43.767 79.438 43.767M92.752 47.372C93.326 47.372 93.794 46.904 93.794 46.327C93.794 45.752 93.326 45.285 92.752 45.285C92.186 45.285 91.709 45.753 91.709 46.327C91.709 46.904 92.186 47.372 92.753 47.372M49.797 36.179C48.829 36.179 47.943 35.819 47.295 35.246C46.638 34.669 46.235 33.863 46.235 32.973C46.235 32.087 46.638 31.285 47.295 30.703C47.943 30.127 48.83 29.773 49.798 29.773C50.776 29.773 51.662 30.127 52.302 30.703C52.962 31.285 53.369 32.087 53.369 32.973C53.369 33.863 52.964 34.669 52.303 35.246C51.663 35.82 50.777 36.179 49.8 36.179M49.8 35.619C50.642 35.619 51.397 35.317 51.943 34.833C52.477 34.355 52.813 33.698 52.813 32.973C52.813 32.249 52.476 31.596 51.943 31.12C51.397 30.63 50.643 30.33 49.801 30.33C48.964 30.33 48.211 30.63 47.664 31.12C47.13 31.596 46.794 32.25 46.794 32.972C46.794 33.697 47.131 34.354 47.664 34.832C48.21 35.317 48.964 35.618 49.802 35.618M32.234 43.421L26.389 57.096H38.073L32.233 43.421H32.234ZM20.164 44.517C18.861 44.517 17.671 45.054 16.811 45.919C15.953 46.779 15.421 47.973 15.421 49.286V57.096H24.913V49.286C24.913 46.66 22.778 44.516 20.163 44.516M11.018 47.573L8.094 57.097H13.944L11.018 47.574V47.573ZM32.233 42.366C33.373 42.366 34.301 41.433 34.301 40.286C34.301 39.139 33.374 38.2 32.233 38.2C31.092 38.2 30.156 39.137 30.156 40.285C30.156 41.433 31.091 42.365 32.232 42.365M20.162 43.765C21.162 43.765 21.972 42.945 21.972 41.945C21.972 40.941 21.162 40.127 20.162 40.127C19.165 40.127 18.35 40.941 18.35 41.947C18.35 42.947 19.165 43.767 20.162 43.767M6.848 47.372C7.418 47.372 7.891 46.904 7.891 46.327C7.891 45.752 7.419 45.285 6.848 45.285C6.271 45.285 5.806 45.753 5.806 46.327C5.806 46.904 6.272 47.372 6.848 47.372ZM60.155 61.142H39.447V74.988H60.157V61.142H60.155ZM73.402 64.242H64.372V71.885H73.402V64.243V64.242ZM93.684 64.242H93.027V71.889H93.683C94.323 71.889 94.848 71.362 94.848 70.717V65.417C94.848 64.77 94.322 64.243 93.682 64.243M49.792 62.45C51.668 62.45 53.388 63.37 54.75 64.576C56.646 66.252 57.865 68.511 57.865 69.621C57.865 70.645 56.929 71.554 55.411 72.191C53.965 72.798 51.975 73.173 49.791 73.173C47.608 73.173 45.621 72.798 44.177 72.19C42.659 71.554 41.719 70.645 41.719 69.62C41.719 68.51 42.942 66.252 44.839 64.577C46.205 63.371 47.919 62.452 49.792 62.452M49.792 63.009C48.078 63.009 46.482 63.869 45.205 64.997C43.425 66.567 42.279 68.629 42.279 69.622C42.279 70.397 43.089 71.128 44.392 71.677C45.772 72.26 47.682 72.617 49.792 72.617C51.902 72.617 53.815 72.259 55.198 71.677C56.508 71.129 57.311 70.397 57.311 69.622C57.311 68.629 56.161 66.566 54.388 64.997C53.112 63.87 51.511 63.009 49.792 63.009M19.068 63.689H21.141C22.086 63.689 22.861 64.466 22.861 65.419V70.719C22.861 71.669 22.086 72.447 21.141 72.447H19.067C18.117 72.447 17.347 71.67 17.347 70.72V65.42C17.347 64.466 18.117 63.69 19.067 63.69M19.067 64.245C18.425 64.245 17.9 64.772 17.9 65.419V70.719C17.9 71.364 18.424 71.891 19.066 71.891H21.139C21.779 71.891 22.305 71.364 22.305 70.719V65.419C22.305 64.772 21.78 64.245 21.138 64.245H19.064H19.067ZM78.454 63.689H80.522C81.467 63.689 82.246 64.466 82.246 65.419V70.719C82.246 71.669 81.466 72.447 80.523 72.447H78.456C77.504 72.447 76.732 71.67 76.732 70.72V65.42C76.732 64.466 77.502 63.69 78.455 63.69M78.455 64.245C77.807 64.245 77.281 64.772 77.281 65.419V70.719C77.281 71.364 77.805 71.891 78.454 71.891H80.522C81.162 71.891 81.688 71.364 81.688 70.719V65.419C81.688 64.772 81.163 64.245 80.523 64.245H78.456H78.455ZM5.911 64.245C5.271 64.245 4.746 64.772 4.746 65.419V70.719C4.746 71.364 5.271 71.891 5.91 71.891H6.565V64.245H5.909H5.911ZM73.669 63.689C73.809 63.689 73.949 63.829 73.949 63.967V72.167C73.949 72.307 73.809 72.447 73.669 72.447H64.094C63.95 72.447 63.814 72.307 63.814 72.167V63.967C63.814 63.829 63.95 63.689 64.094 63.689H73.669ZM89.863 64.245H85.718V71.887H89.863V64.245ZM90.143 63.689C90.283 63.689 90.421 63.829 90.421 63.967V72.167C90.421 72.307 90.281 72.447 90.141 72.447H85.447C85.307 72.447 85.177 72.307 85.177 72.167V63.967C85.177 63.829 85.307 63.689 85.447 63.689H90.15H90.143ZM25.923 63.689H35.493C35.641 63.689 35.776 63.829 35.776 63.967V72.167C35.776 72.307 35.641 72.447 35.493 72.447H25.929C25.785 72.447 25.649 72.307 25.649 72.167V63.967C25.649 63.829 25.785 63.689 25.929 63.689M26.209 71.891H35.229V64.249H26.209V71.891V71.891ZM9.455 63.689H14.152C14.292 63.689 14.432 63.829 14.432 63.967V72.167C14.432 72.307 14.292 72.447 14.152 72.447H9.455C9.315 72.447 9.175 72.307 9.175 72.167V63.967C9.175 63.829 9.315 63.689 9.455 63.689ZM9.729 71.891H13.876V64.249H9.728V71.891H9.729ZM38.889 74.991V61.144H7.127V74.99H38.89L38.889 74.991ZM60.714 61.144V74.99H92.479V61.142H60.714V61.144Z" fill="#231F20"/>
<path d="M7.12701 78.482H92.477V75.546H7.12701V78.482ZM79.437 154.788V156.388C79.724 156.284 80.037 156.118 80.372 155.88C80.446 155.83 80.61 155.827 80.684 155.88C81.012 156.094 81.324 156.26 81.611 156.358C82.111 156.535 82.563 156.538 82.941 156.383C83.335 156.233 83.671 155.921 83.967 155.476L84.067 155.324C84 155.354 83.943 155.378 83.869 155.394C83.409 155.526 82.959 155.402 82.556 155.11C82.079 154.76 81.972 154 81.856 153.227C81.816 152.897 81.766 152.552 81.684 152.26C81.66 152.173 81.717 152.017 81.784 151.967C82.184 151.642 82.341 151.247 82.481 150.875C82.653 150.435 82.809 150.018 83.294 149.701C83.351 149.664 83.409 149.631 83.466 149.601C83.811 149.421 84.172 149.379 84.526 149.474C84.771 149.544 85.001 149.676 85.198 149.89L85.222 149.84C85.386 149.388 85.616 149.05 85.895 148.827C86.198 148.592 86.551 148.497 86.912 148.563C86.986 148.575 87.06 148.596 87.132 148.625C87.462 148.745 87.692 148.785 87.922 148.782C88.159 148.778 88.406 148.72 88.75 148.642C89.02 148.585 89.185 149.025 88.947 149.157C87.543 149.932 86.911 154.543 86.509 158.243C86.509 158.276 86.501 158.301 86.493 158.33C86.443 158.82 86.393 159.298 86.353 159.748C86.253 160.68 86.163 161.504 86.083 162.106C86.451 162.844 86.747 163.696 86.977 164.686C87.223 165.733 87.387 166.928 87.494 168.296C87.706 168.076 87.928 167.866 88.149 167.678C89.774 166.231 91.409 165.593 92.942 165.593C94.494 165.593 95.946 166.253 97.218 167.393C97.374 167.538 97.53 167.695 97.686 167.859C98.286 164.893 98.606 161.789 98.606 158.555V79.045H50.076V168.836C50.482 168.296 50.916 167.806 51.386 167.389C52.493 166.383 53.753 165.761 55.086 165.617C56.429 165.477 57.841 165.824 59.269 166.759C59.879 167.163 60.492 167.665 61.104 168.292C61.219 166.924 61.384 165.728 61.621 164.682C61.835 163.775 62.097 162.984 62.425 162.292C62.335 161.682 62.237 160.792 62.131 159.745C61.737 155.913 61.131 150.032 59.537 149.155C59.299 149.022 59.463 148.581 59.73 148.639C60.07 148.717 60.32 148.775 60.555 148.779C60.789 148.783 61.019 148.742 61.343 148.622C61.425 148.592 61.499 148.572 61.573 148.56C61.933 148.494 62.279 148.59 62.583 148.824C62.865 149.046 63.099 149.384 63.259 149.838C63.267 149.855 63.271 149.872 63.279 149.888C63.485 149.674 63.714 149.542 63.961 149.472C64.311 149.377 64.675 149.418 65.015 149.6C65.068 149.63 65.125 149.662 65.185 149.7C65.668 150.016 65.825 150.432 65.995 150.873C66.145 151.243 66.291 151.64 66.702 151.965C66.768 152.015 66.817 152.171 66.797 152.258C66.719 152.55 66.67 152.896 66.62 153.226C66.513 154.001 66.407 154.759 65.922 155.109C65.524 155.403 65.077 155.526 64.609 155.394C64.543 155.378 64.479 155.354 64.419 155.324C64.449 155.378 64.479 155.427 64.509 155.476C64.805 155.921 65.146 156.234 65.536 156.383C65.919 156.54 66.366 156.535 66.876 156.358C67.162 156.258 67.47 156.093 67.798 155.878C67.876 155.826 68.04 155.83 68.114 155.878C68.444 156.11 68.754 156.275 69.041 156.382V154.786H69.054C69.017 154.748 68.976 154.711 68.944 154.666C68.652 154.352 68.467 153.948 68.244 153.483C68.089 153.133 67.908 152.745 67.658 152.35C67.605 152.26 67.621 152.082 67.703 152.004C68.056 151.65 68.22 151.147 68.363 150.694C68.487 150.326 68.59 149.988 68.795 149.737C68.872 149.647 68.958 149.557 69.04 149.474V133.136H60.767C59.767 133.136 58.912 133.276 58.19 133.512C57.464 133.742 56.86 134.072 56.36 134.427C56.187 134.555 55.925 134.42 55.925 134.201V122.583C55.925 122.365 56.188 122.229 56.36 122.353C56.86 122.715 57.464 123.036 58.19 123.271C58.912 123.506 59.766 123.646 60.767 123.646H69.04V110.996H64.197C63.253 110.996 62.417 111.123 61.685 111.329C60.855 111.564 60.175 111.909 59.641 112.289C59.461 112.413 59.201 112.281 59.201 112.062V100.442C59.201 100.222 59.461 100.088 59.641 100.215C60.175 100.598 60.856 100.939 61.685 101.175C62.415 101.382 63.253 101.508 64.197 101.508H69.04V90.919C69.04 89.977 68.917 89.134 68.704 88.399C68.469 87.571 68.132 86.879 67.751 86.343C67.624 86.166 67.759 85.903 67.977 85.903H80.49C80.712 85.903 80.843 86.166 80.712 86.343C80.334 86.879 79.998 87.571 79.76 88.398C79.555 89.133 79.432 89.976 79.432 90.918V101.508H84.277C85.214 101.508 86.059 101.383 86.781 101.175C87.611 100.939 88.301 100.597 88.833 100.215C89.013 100.087 89.268 100.222 89.268 100.441V112.061C89.268 112.281 89.015 112.411 88.834 112.289C88.301 111.909 87.611 111.564 86.782 111.329C86.06 111.123 85.214 110.995 84.279 110.995H79.439V123.646H87.565C88.5 123.646 89.338 123.523 90.068 123.313C90.896 123.078 91.585 122.736 92.111 122.353C92.291 122.229 92.554 122.366 92.554 122.583V134.201C92.554 134.419 92.291 134.555 92.111 134.428C91.586 134.044 90.896 133.708 90.067 133.472C89.337 133.266 88.497 133.138 87.563 133.138H79.437V149.468C79.519 149.551 79.609 149.646 79.691 149.741C79.888 149.991 79.995 150.331 80.118 150.697C80.258 151.152 80.423 151.654 80.784 152.009C80.858 152.087 80.882 152.264 80.824 152.355C80.579 152.742 80.398 153.135 80.234 153.488C80.021 153.954 79.832 154.358 79.544 154.671C79.504 154.717 79.471 154.754 79.43 154.791H79.438L79.437 154.788ZM78.879 156.511V155.188C78.609 155.332 78.313 155.402 77.992 155.394C77.656 155.386 77.294 155.284 76.909 155.089C77.254 155.716 77.656 156.161 78.109 156.371C78.337 156.486 78.599 156.531 78.879 156.511V156.511ZM69.604 155.188V156.511C69.884 156.531 70.146 156.486 70.384 156.371C70.834 156.161 71.23 155.716 71.574 155.089C71.188 155.283 70.834 155.386 70.499 155.394C70.169 155.402 69.883 155.332 69.604 155.188V155.188Z" stroke="#231F20" stroke-width="0.007"/>
<path d="M78.879 149.073V132.861C78.879 132.721 79.019 132.581 79.159 132.581H87.563C88.548 132.581 89.433 132.713 90.213 132.935C90.896 133.128 91.493 133.388 91.995 133.688V123.094C91.495 123.391 90.895 123.654 90.215 123.852C89.435 124.074 88.548 124.206 87.563 124.206H79.157C79.017 124.206 78.879 124.066 78.879 123.926V110.716C78.879 110.579 79.019 110.439 79.159 110.439H84.279C85.265 110.439 86.159 110.575 86.939 110.793C87.621 110.987 88.212 111.25 88.712 111.547V100.956C88.212 101.252 87.622 101.516 86.939 101.706C86.159 101.931 85.265 102.066 84.279 102.066H79.159C79.019 102.066 78.879 101.926 78.879 101.789V90.919C78.879 89.925 79.019 89.031 79.239 88.246C79.429 87.564 79.691 86.969 79.987 86.462H68.497C68.791 86.969 69.05 87.564 69.251 88.246C69.464 89.031 69.604 89.926 69.604 90.918V101.788C69.604 101.928 69.464 102.068 69.324 102.068H64.204C63.21 102.068 62.324 101.931 61.539 101.708C60.862 101.518 60.267 101.251 59.766 100.958V111.546C60.266 111.249 60.861 110.986 61.538 110.792C62.322 110.572 63.208 110.438 64.202 110.438H69.324C69.464 110.438 69.604 110.578 69.604 110.714V123.926C69.604 124.066 69.464 124.206 69.324 124.206H60.772C59.712 124.206 58.802 124.049 58.022 123.802C57.442 123.612 56.93 123.372 56.487 123.097V133.686C56.931 133.414 57.444 133.171 58.023 132.981C58.803 132.734 59.713 132.581 60.773 132.581H69.325C69.465 132.581 69.605 132.721 69.605 132.861V149.081C69.85 148.949 70.121 148.883 70.409 148.875C70.622 148.875 70.844 148.899 71.074 148.973C70.984 148.767 70.934 148.569 70.91 148.363C70.852 147.7 71.13 147.086 71.583 146.583C72.01 146.109 72.583 145.85 73.167 145.593C73.487 145.45 73.807 145.303 74.103 145.123C74.16 145.087 74.323 145.087 74.39 145.123C74.677 145.301 75.006 145.45 75.326 145.593C75.906 145.85 76.474 146.109 76.909 146.583C77.361 147.086 77.639 147.7 77.574 148.363C77.55 148.569 77.5 148.767 77.418 148.973C77.648 148.899 77.861 148.873 78.075 148.873C78.36 148.883 78.631 148.948 78.877 149.073H78.879ZM49.519 169.838C49.479 169.768 49.494 169.706 49.519 169.644V159.35H1.00299C1.04999 162.07 1.31899 164.707 1.78899 167.23C2.28599 169.89 2.99599 172.43 3.89899 174.852H49.519V169.838Z" fill="white" stroke="#231F20" stroke-width="0.007"/>
<path d="M93.03 78.482H98.882C99.022 78.482 99.169 78.622 99.169 78.762V158.552C99.169 168.194 96.354 176.732 91.913 183.705C86.898 191.591 79.806 197.472 72.378 200.67C67.7 202.677 63.051 204.078 59.048 205.273C55.22 206.423 51.99 207.391 49.938 208.541C49.88 208.566 49.831 208.578 49.778 208.574C49.741 208.569 49.7 208.556 49.668 208.54C47.608 207.39 44.381 206.422 40.556 205.272C36.559 204.077 31.906 202.676 27.226 200.665C24.822 199.632 22.458 198.321 20.184 196.747C17.954 195.202 15.809 193.413 13.816 191.394C11.598 189.151 9.56 186.624 7.781 183.852C6.084 181.198 4.617 178.317 3.449 175.232C2.504 172.725 1.761 170.088 1.244 167.335C0.756001 164.699 0.479001 161.958 0.446001 159.123C0.440001 159.107 0.440002 159.086 0.440002 159.069V78.762C0.440002 78.622 0.580001 78.482 0.720001 78.482H6.574V72.446H5.918C4.972 72.446 4.194 71.668 4.194 70.718V65.418C4.194 64.464 4.972 63.688 5.918 63.688H6.574V47.91C5.824 47.775 5.254 47.122 5.254 46.33C5.254 45.447 5.972 44.724 6.851 44.724C7.73 44.724 8.449 45.447 8.449 46.329C8.449 47.122 7.877 47.776 7.129 47.911V57.097H7.515L10.702 46.734C9.762 46.577 9.042 45.754 9.042 44.774C9.042 43.866 9.649 43.102 10.475 42.861C10.479 42.824 10.492 42.781 10.5 42.743L12.464 36.317C12.472 36.287 12.548 36.185 12.574 36.167L35.027 20.753C35.047 20.737 35.161 20.703 35.177 20.703H48.531C48.157 20.537 47.821 20.31 47.531 20.033C46.901 19.428 46.501 18.58 46.479 17.638C46.472 17.314 46.517 16.99 46.595 16.685C46.661 16.428 46.763 16.189 46.885 15.96L43.905 11.49L40.701 13.648C40.635 14.235 40.361 14.763 39.958 15.154C39.522 15.576 38.938 15.842 38.291 15.854C37.611 15.867 36.986 15.601 36.526 15.164C36.066 14.72 35.779 14.104 35.762 13.42C35.746 12.736 36.008 12.108 36.452 11.648C36.887 11.188 37.502 10.898 38.188 10.88C38.331 10.88 38.478 10.89 38.628 10.915C38.721 10.931 38.824 10.952 38.914 10.977L42.124 8.821L39.546 4.964C38.959 4.896 38.434 4.626 38.044 4.222C37.624 3.782 37.364 3.196 37.35 2.545C37.334 1.863 37.6 1.23501 38.04 0.773006C38.48 0.318006 39.09 0.023007 39.772 0.00700698C40.452 -0.00499302 41.082 0.259006 41.537 0.703006C41.992 1.14301 42.287 1.75801 42.304 2.44001C42.304 2.58801 42.296 2.737 42.271 2.88C42.255 2.982 42.234 3.08001 42.211 3.17601L44.783 7.032L47.881 4.942C47.951 4.356 48.218 3.82901 48.624 3.43701C49.059 3.02001 49.641 2.754 50.29 2.741C50.972 2.725 51.595 2.991 52.055 3.433C52.515 3.873 52.802 4.488 52.818 5.17C52.835 5.854 52.573 6.483 52.128 6.944C51.69 7.408 51.078 7.694 50.398 7.711C50.248 7.715 50.106 7.703 49.958 7.681C49.855 7.666 49.761 7.64301 49.668 7.61801L46.564 9.70401L49.544 14.164H49.589C49.651 14.157 49.725 14.151 49.811 14.151C50.743 14.131 51.604 14.497 52.236 15.101C52.868 15.709 53.266 16.558 53.286 17.495C53.308 18.435 52.942 19.3 52.343 19.933C52.031 20.258 51.658 20.523 51.243 20.706H64.414C64.444 20.706 64.554 20.741 64.571 20.756L87.037 36.166C87.062 36.182 87.137 36.284 87.137 36.316L89.097 42.741C89.114 42.778 89.123 42.821 89.131 42.859C89.961 43.099 90.567 43.864 90.567 44.771C90.567 45.754 89.845 46.576 88.901 46.731L92.087 57.096H92.48V47.91C91.725 47.774 91.16 47.12 91.16 46.328C91.16 45.446 91.873 44.723 92.75 44.723C93.63 44.723 94.35 45.446 94.35 46.328C94.35 47.121 93.777 47.775 93.03 47.91V63.686H93.686C94.629 63.686 95.4 64.463 95.4 65.416V70.716C95.4 71.666 94.628 72.444 93.685 72.444H93.028V78.481L93.03 78.482ZM97.56 168.519C97.33 168.269 97.092 168.029 96.846 167.806C95.679 166.751 94.35 166.149 92.946 166.149C91.534 166.145 90.032 166.743 88.522 168.089C88.169 168.391 87.824 168.737 87.472 169.133C87.315 169.31 87.002 169.199 86.987 168.963C86.889 167.353 86.709 165.973 86.437 164.81C86.241 163.957 86.003 163.22 85.699 162.572H62.909C62.609 163.219 62.364 163.957 62.171 164.81C61.901 165.972 61.723 167.352 61.617 168.964C61.601 169.199 61.293 169.31 61.132 169.134C60.41 168.324 59.688 167.699 58.974 167.224C57.657 166.364 56.364 166.046 55.149 166.174C53.939 166.298 52.785 166.874 51.759 167.806C51.156 168.358 50.585 169.026 50.079 169.801V207.836C52.189 206.748 55.272 205.826 58.887 204.742C62.877 203.542 67.51 202.158 72.157 200.155C79.494 197.002 86.495 191.195 91.453 183.403C94.236 179.026 96.37 174.027 97.56 168.518V168.519ZM62.504 157.936H85.987C86.34 154.746 86.89 150.968 87.997 149.336H87.932C87.645 149.341 87.349 149.291 86.947 149.146C86.907 149.131 86.865 149.118 86.817 149.11C86.61 149.073 86.413 149.13 86.241 149.267C86.044 149.42 85.871 149.677 85.741 150.03C85.681 150.195 85.633 150.38 85.591 150.587C85.551 150.83 85.191 150.892 85.075 150.669C85.042 150.607 85.009 150.541 84.977 150.492C84.797 150.224 84.591 150.072 84.377 150.01C84.165 149.957 83.935 149.98 83.721 150.097C83.681 150.113 83.639 150.137 83.606 150.163C83.268 150.39 83.136 150.723 82.996 151.078C82.841 151.483 82.676 151.903 82.259 152.286C82.325 152.562 82.366 152.863 82.407 153.156C82.507 153.806 82.597 154.454 82.884 154.664C83.147 154.862 83.442 154.944 83.73 154.862C84.01 154.779 84.312 154.548 84.616 154.137C84.771 153.909 85.189 154.127 85.099 154.387C84.909 154.927 84.689 155.397 84.434 155.789C84.074 156.324 83.646 156.712 83.146 156.909C82.636 157.112 82.063 157.112 81.431 156.889C81.144 156.782 80.841 156.642 80.528 156.444C79.51 157.128 78.632 157.234 77.868 156.877C77.098 156.515 76.481 155.661 75.998 154.433C75.908 154.193 76.228 153.955 76.424 154.111C77.031 154.598 77.557 154.828 78.008 154.836C78.428 154.851 78.804 154.654 79.133 154.299C79.363 154.049 79.535 153.677 79.733 153.252C79.873 152.939 80.036 152.602 80.241 152.238C79.896 151.818 79.731 151.323 79.584 150.87C79.486 150.553 79.394 150.27 79.256 150.096C78.903 149.666 78.509 149.446 78.066 149.436C77.623 149.428 77.122 149.634 76.589 150.062C76.589 150.07 76.581 150.07 76.581 150.07L76.573 150.078C76.36 150.251 76.007 149.831 76.22 149.65C76.737 149.188 76.983 148.74 77.016 148.315C77.074 147.819 76.852 147.35 76.499 146.955C76.146 146.567 75.629 146.34 75.095 146.101C74.807 145.973 74.52 145.841 74.24 145.685C73.97 145.842 73.674 145.975 73.394 146.101C72.859 146.341 72.342 146.566 71.989 146.954C71.636 147.349 71.414 147.818 71.464 148.314C71.504 148.737 71.744 149.186 72.268 149.648C72.473 149.828 72.128 150.25 71.908 150.076C71.908 150.076 71.908 150.068 71.898 150.068V150.06C71.358 149.632 70.865 149.426 70.422 149.434C69.979 149.442 69.576 149.664 69.222 150.094C69.092 150.267 68.997 150.551 68.895 150.868C68.748 151.322 68.592 151.816 68.239 152.236C68.452 152.598 68.609 152.936 68.756 153.25C68.954 153.675 69.126 154.045 69.356 154.297C69.684 154.651 70.062 154.849 70.48 154.833C70.932 154.823 71.45 154.593 72.056 154.107C72.262 153.95 72.581 154.19 72.483 154.429C72.007 155.657 71.391 156.509 70.62 156.873C69.857 157.233 68.98 157.123 67.953 156.44C67.641 156.637 67.345 156.778 67.058 156.885C66.418 157.108 65.848 157.108 65.338 156.905C64.838 156.708 64.406 156.321 64.053 155.785C63.795 155.393 63.573 154.925 63.38 154.385C63.294 154.125 63.708 153.905 63.873 154.132C64.173 154.542 64.473 154.774 64.759 154.856C65.042 154.938 65.333 154.856 65.596 154.658C65.891 154.448 65.982 153.801 66.072 153.15C66.112 152.857 66.162 152.556 66.22 152.28C65.8 151.897 65.637 151.477 65.48 151.073C65.346 150.72 65.214 150.386 64.882 150.159C64.842 150.134 64.8 150.109 64.759 150.093C64.546 149.977 64.319 149.953 64.111 150.006C63.891 150.068 63.684 150.22 63.511 150.488C63.475 150.538 63.441 150.603 63.405 150.665C63.293 150.887 62.932 150.825 62.887 150.583C62.854 150.377 62.805 150.191 62.743 150.026C62.616 149.672 62.443 149.416 62.243 149.264C62.065 149.129 61.873 149.071 61.668 149.108C61.623 149.116 61.573 149.128 61.532 149.145C61.134 149.29 60.842 149.34 60.547 149.335H60.481C61.599 150.967 62.141 154.745 62.501 157.935L62.504 157.936ZM85.921 158.493H62.561C62.611 158.905 62.643 159.305 62.684 159.683C62.782 160.62 62.868 161.427 62.947 162.013H85.535C85.617 161.427 85.707 160.619 85.805 159.683C85.839 159.305 85.88 158.905 85.921 158.493ZM0.995001 143.291H49.519V158.794H0.995001V143.291ZM49.519 190.924V175.414H4.112C5.238 178.318 6.638 181.042 8.249 183.552C9.985 186.259 11.967 188.724 14.124 190.924H49.519V190.924Z" stroke="#231F20" stroke-width="0.007"/>
<path d="M49.519 191.476H14.682C16.518 193.276 18.468 194.888 20.495 196.289C22.735 197.843 25.075 199.141 27.447 200.151C32.089 202.158 36.722 203.541 40.711 204.737C44.323 205.827 47.409 206.749 49.519 207.833V191.476V191.476Z" fill="white" stroke="#231F20" stroke-width="0.007"/>
<path d="M49.519 94.543V79.04H0.994995V94.543H49.519Z" stroke="#231F20" stroke-width="0.007"/>
<path d="M0.994995 95.099H49.519V110.609H0.994995V95.099Z" fill="white" stroke="#231F20" stroke-width="0.007"/>
<path d="M0.994995 111.166H49.519V126.666H0.994995V111.166Z" stroke="#231F20" stroke-width="0.007"/>
<path d="M0.994995 127.232H49.519V142.736H0.994995V127.232Z" fill="white" stroke="#231F20" stroke-width="0.007"/>
<path d="M49.947 20.423C50.734 20.41 51.432 20.073 51.941 19.545C52.446 19.012 52.751 18.291 52.733 17.502C52.717 16.712 52.38 16.004 51.85 15.497C51.325 14.99 50.606 14.687 49.818 14.704C49.77 14.704 49.708 14.707 49.635 14.714C49.561 14.719 49.495 14.727 49.45 14.736C49.372 14.744 49.224 14.682 49.175 14.614L45.949 9.778C45.876 9.661 45.913 9.468 46.024 9.393L49.468 7.07601C49.512 7.04601 49.66 7.026 49.718 7.043C49.82 7.08 49.931 7.109 50.046 7.128C50.152 7.144 50.266 7.152 50.391 7.152C50.916 7.135 51.391 6.90601 51.733 6.55201C52.07 6.19201 52.279 5.70801 52.267 5.17501C52.253 4.64301 52.027 4.167 51.675 3.825C51.318 3.483 50.835 3.277 50.3 3.29C49.8 3.302 49.348 3.50601 49.012 3.83001C48.675 4.16001 48.452 4.61 48.429 5.11C48.421 5.163 48.351 5.295 48.306 5.323L44.86 7.643C44.75 7.723 44.552 7.68 44.47 7.567L41.67 3.36701C41.638 3.32001 41.62 3.17301 41.638 3.11701C41.678 3.01301 41.708 2.90401 41.724 2.78701C41.74 2.68301 41.748 2.57 41.744 2.447C41.732 1.917 41.506 1.43401 41.154 1.09201C40.792 0.752006 40.312 0.547002 39.782 0.559002C39.252 0.567002 38.777 0.796006 38.436 1.14901C38.1 1.50901 37.89 1.997 37.899 2.529C37.911 3.032 38.117 3.491 38.445 3.825C38.768 4.167 39.215 4.38801 39.715 4.41201C39.769 4.41601 39.897 4.49201 39.929 4.53401L42.729 8.737C42.806 8.851 42.769 9.04701 42.654 9.12001L39.112 11.504C39.067 11.534 38.915 11.554 38.862 11.534C38.759 11.5 38.649 11.471 38.538 11.454C38.428 11.438 38.312 11.43 38.193 11.43C37.663 11.442 37.187 11.67 36.846 12.028C36.506 12.382 36.304 12.873 36.312 13.404C36.324 13.931 36.552 14.414 36.906 14.756C37.259 15.096 37.743 15.3 38.276 15.292C38.776 15.28 39.232 15.072 39.569 14.746C39.901 14.423 40.123 13.971 40.152 13.473C40.152 13.418 40.23 13.288 40.275 13.253L43.817 10.873C43.932 10.793 44.125 10.833 44.203 10.949L47.43 15.785C47.48 15.853 47.483 16.018 47.438 16.085C47.303 16.313 47.2 16.562 47.126 16.825C47.06 17.081 47.028 17.347 47.028 17.622C47.044 18.41 47.381 19.119 47.914 19.626C48.441 20.132 49.154 20.439 49.944 20.419L49.947 20.423ZM79.437 44.516C76.827 44.516 74.693 46.66 74.693 49.286V57.096H84.181V49.286C84.181 47.973 83.647 46.78 82.794 45.918C81.924 45.053 80.742 44.518 79.437 44.518V44.516ZM80.504 44.07C81.538 44.28 82.457 44.8 83.18 45.52C84.15 46.486 84.74 47.82 84.74 49.284V57.094H85.077L88.262 46.731C87.318 46.574 86.604 45.751 86.604 44.771C86.604 44.496 86.654 44.234 86.76 43.997C83.797 39.117 80.013 34.773 75.457 31.327C71.205 28.11 66.28 25.664 60.715 24.271V47.001C60.731 47.264 60.74 47.525 60.74 47.795V57.095H60.92L66.994 42.897C65.717 42.712 64.736 41.61 64.736 40.285C64.736 38.828 65.916 37.648 67.37 37.648C68.82 37.648 69.997 38.83 69.997 40.286C69.997 41.611 69.021 42.713 67.749 42.898L73.815 57.098H74.135V49.286C74.135 46.726 75.957 44.57 78.37 44.071C77.606 43.677 77.073 42.871 77.073 41.948C77.073 40.64 78.133 39.572 79.437 39.572C80.742 39.572 81.809 40.64 81.809 41.948C81.809 42.873 81.276 43.678 80.504 44.072V44.07ZM84.469 57.648H7.12502V60.588H92.477V57.648H85.273H84.469ZM88.581 47.573L85.659 57.096H91.511L88.581 47.573ZM49.337 21.256H43.947V38.53C45.637 37.446 47.653 36.812 49.799 36.812C51.949 36.812 53.959 37.446 55.659 38.53V21.256H49.339H49.337ZM43.387 21.256H39.444V44.264C40.184 42.098 41.578 40.234 43.388 38.914V21.256H43.387ZM38.89 21.256H35.265L12.965 36.568L11.065 42.778C11.643 42.794 12.16 43.056 12.517 43.466C15.492 38.626 19.272 34.318 23.811 30.879C28.145 27.597 33.184 25.105 38.889 23.699V21.257L38.89 21.256ZM88.532 42.778L86.636 36.568L64.333 21.258H60.713V23.701C66.413 25.106 71.458 27.598 75.791 30.881C80.331 34.319 84.106 38.627 87.085 43.467C87.438 43.057 87.955 42.797 88.53 42.779L88.532 42.778ZM60.157 21.256H56.212V38.913C58.022 40.233 59.417 42.099 60.156 44.263V21.257L60.157 21.256ZM60.157 57.096V47.018C59.757 41.642 55.257 37.368 49.797 37.368C44.352 37.368 39.841 41.642 39.443 47.018V57.096H60.157V57.096ZM38.89 46.998V24.272C33.317 25.666 28.39 28.11 24.147 31.326C19.587 34.773 15.809 39.116 12.847 43.998C12.942 44.235 13.002 44.496 13.002 44.771C13.002 45.754 12.284 46.576 11.342 46.731L14.522 57.096H14.859V49.286C14.859 47.822 15.459 46.486 16.419 45.521C17.141 44.801 18.067 44.281 19.101 44.071C18.331 43.677 17.798 42.871 17.798 41.948C17.798 40.64 18.862 39.572 20.165 39.572C21.468 39.572 22.531 40.64 22.531 41.948C22.531 42.871 22.001 43.678 21.231 44.071C23.645 44.569 25.467 46.725 25.467 49.286V57.096H25.787L31.847 42.898C30.583 42.713 29.602 41.611 29.602 40.286C29.602 38.829 30.78 37.649 32.232 37.649C33.677 37.649 34.86 38.829 34.86 40.286C34.86 41.611 33.88 42.713 32.61 42.898L38.677 57.098H38.857V47.796C38.857 47.526 38.873 47.26 38.89 46.998V46.998ZM12.32 44.188C12.232 44.122 12.21 44.058 12.22 43.998C11.967 43.603 11.522 43.342 11.017 43.342C10.231 43.342 9.59301 43.982 9.59301 44.772C9.59301 45.562 10.231 46.202 11.017 46.202C11.803 46.202 12.447 45.562 12.447 44.772C12.447 44.562 12.4 44.365 12.32 44.188ZM87.382 43.998C87.39 44.058 87.366 44.122 87.284 44.188C87.194 44.364 87.152 44.562 87.152 44.77C87.152 45.56 87.8 46.2 88.58 46.2C89.368 46.2 90.008 45.56 90.008 44.77C90.008 43.98 89.368 43.34 88.581 43.34C88.081 43.34 87.638 43.602 87.383 43.998H87.382ZM67.371 43.421L61.527 57.096H73.215L67.371 43.421ZM67.371 42.366C68.511 42.366 69.447 41.433 69.447 40.286C69.447 39.139 68.512 38.2 67.371 38.2C66.226 38.2 65.295 39.137 65.295 40.285C65.295 41.433 66.225 42.365 67.371 42.365V42.366ZM79.437 43.766C80.437 43.766 81.243 42.946 81.243 41.946C81.243 40.942 80.439 40.128 79.437 40.128C78.444 40.128 77.631 40.942 77.631 41.948C77.631 42.948 78.444 43.768 79.437 43.768V43.766ZM92.751 47.373C93.325 47.373 93.793 46.905 93.793 46.328C93.793 45.753 93.325 45.286 92.751 45.286C92.185 45.286 91.708 45.754 91.708 46.328C91.708 46.905 92.185 47.373 92.752 47.373H92.751ZM49.797 36.179C48.829 36.179 47.943 35.819 47.295 35.246C46.638 34.669 46.235 33.863 46.235 32.973C46.235 32.087 46.638 31.285 47.295 30.703C47.943 30.127 48.83 29.773 49.798 29.773C50.776 29.773 51.662 30.127 52.302 30.703C52.962 31.285 53.369 32.087 53.369 32.973C53.369 33.863 52.964 34.669 52.303 35.246C51.663 35.82 50.777 36.179 49.8 36.179H49.797ZM49.797 35.618C50.639 35.618 51.394 35.318 51.94 34.833C52.474 34.355 52.81 33.698 52.81 32.973C52.81 32.249 52.473 31.596 51.94 31.12C51.394 30.63 50.64 30.33 49.798 30.33C48.961 30.33 48.208 30.63 47.661 31.12C47.127 31.596 46.791 32.25 46.791 32.972C46.791 33.697 47.128 34.354 47.661 34.832C48.207 35.317 48.961 35.618 49.799 35.618H49.797ZM32.233 43.421L26.389 57.096H38.073L32.233 43.421ZM20.163 44.516C18.86 44.516 17.67 45.053 16.81 45.918C15.952 46.778 15.42 47.972 15.42 49.285V57.095H24.912V49.285C24.912 46.659 22.777 44.515 20.162 44.515L20.163 44.516ZM11.017 47.573L8.09302 57.096H13.943L11.017 47.573ZM32.233 42.366C33.373 42.366 34.301 41.433 34.301 40.286C34.301 39.139 33.374 38.2 32.233 38.2C31.092 38.2 30.156 39.137 30.156 40.285C30.156 41.433 31.091 42.365 32.232 42.365L32.233 42.366ZM20.163 43.766C21.163 43.766 21.973 42.946 21.973 41.946C21.973 40.942 21.163 40.128 20.163 40.128C19.166 40.128 18.355 40.942 18.355 41.948C18.355 42.948 19.165 43.768 20.163 43.768V43.766ZM6.84901 47.373C7.41901 47.373 7.89202 46.905 7.89202 46.328C7.89202 45.753 7.42001 45.286 6.84901 45.286C6.27201 45.286 5.80701 45.754 5.80701 46.328C5.80701 46.905 6.27301 47.373 6.84901 47.373ZM39.447 61.143H60.157V74.989H39.447V61.143ZM64.375 64.244H73.405V71.89H64.375V64.244ZM93.687 64.244H93.03V71.89H93.686C94.326 71.89 94.851 71.363 94.851 70.718V65.418C94.851 64.771 94.325 64.244 93.685 64.244H93.687ZM49.797 62.451C51.673 62.451 53.393 63.371 54.755 64.577C56.651 66.253 57.87 68.507 57.87 69.622C57.87 70.646 56.934 71.555 55.416 72.192C53.97 72.799 51.98 73.174 49.796 73.174C47.613 73.174 45.626 72.799 44.182 72.191C42.664 71.555 41.724 70.646 41.724 69.621C41.724 68.508 42.947 66.253 44.844 64.578C46.21 63.372 47.924 62.453 49.797 62.453V62.451ZM49.797 63.008C48.083 63.008 46.487 63.868 45.21 64.996C43.43 66.566 42.284 68.628 42.284 69.621C42.284 70.396 43.094 71.127 44.397 71.676C45.777 72.259 47.687 72.616 49.797 72.616C51.907 72.616 53.82 72.258 55.203 71.676C56.513 71.128 57.316 70.396 57.316 69.621C57.316 68.628 56.166 66.565 54.393 64.996C53.117 63.869 51.516 63.008 49.797 63.008V63.008ZM19.073 63.688H21.146C22.091 63.688 22.866 64.465 22.866 65.418V70.718C22.866 71.668 22.091 72.446 21.146 72.446H19.072C18.122 72.446 17.352 71.669 17.352 70.719V65.419C17.352 64.465 18.122 63.689 19.072 63.689L19.073 63.688ZM19.073 64.244C18.431 64.244 17.906 64.771 17.906 65.418V70.718C17.906 71.363 18.43 71.89 19.072 71.89H21.145C21.785 71.89 22.311 71.363 22.311 70.718V65.418C22.311 64.771 21.786 64.244 21.144 64.244H19.07H19.073ZM78.46 63.688H80.528C81.473 63.688 82.252 64.465 82.252 65.418V70.718C82.252 71.668 81.472 72.446 80.529 72.446H78.462C77.51 72.446 76.738 71.669 76.738 70.719V65.419C76.738 64.465 77.508 63.689 78.461 63.689L78.46 63.688ZM78.46 64.244C77.812 64.244 77.286 64.771 77.286 65.418V70.718C77.286 71.363 77.81 71.89 78.459 71.89H80.527C81.167 71.89 81.693 71.363 81.693 70.718V65.418C81.693 64.771 81.168 64.244 80.528 64.244H78.461H78.46ZM5.91702 64.244C5.27702 64.244 4.75201 64.771 4.75201 65.418V70.718C4.75201 71.363 5.27702 71.89 5.91602 71.89H6.57101V64.244H5.91501H5.91702ZM73.675 63.688C73.815 63.688 73.955 63.828 73.955 63.966V72.166C73.955 72.306 73.815 72.446 73.675 72.446H64.1C63.956 72.446 63.82 72.306 63.82 72.166V63.966C63.82 63.828 63.956 63.688 64.1 63.688H73.675ZM85.724 64.244H89.869V71.89H85.724V64.244ZM90.147 63.688C90.287 63.688 90.427 63.828 90.427 63.966V72.166C90.427 72.306 90.287 72.446 90.147 72.446H85.447C85.315 72.446 85.177 72.306 85.177 72.166V63.966C85.177 63.828 85.317 63.688 85.447 63.688H90.15H90.147ZM25.929 63.688H35.499C35.647 63.688 35.782 63.828 35.782 63.966V72.166C35.782 72.306 35.647 72.446 35.499 72.446H25.929C25.785 72.446 25.649 72.306 25.649 72.166V63.966C25.649 63.828 25.785 63.688 25.929 63.688ZM26.207 64.244H35.229V71.89H26.209L26.207 64.244ZM9.45502 63.688H14.152C14.292 63.688 14.432 63.828 14.432 63.966V72.166C14.432 72.306 14.292 72.446 14.152 72.446H9.45502C9.31502 72.446 9.17501 72.306 9.17501 72.166V63.966C9.17501 63.828 9.31502 63.688 9.45502 63.688ZM9.72902 64.244H13.876V71.89H9.72801L9.72902 64.244ZM38.89 74.989V61.143H7.12701V74.989H38.89ZM60.714 61.143V74.989H92.479V61.143H60.714Z" stroke="#231F20" stroke-width="0.007"/>
</svg>
