<?xml version="1.0" encoding="utf-8"?>
<!-- Generator: Adobe Illustrator 19.2.1, SVG Export Plug-In . SVG Version: 6.00 Build 0)  -->
<svg version="1.1" id="Layer_1" xmlns="http://www.w3.org/2000/svg" xmlns:xlink="http://www.w3.org/1999/xlink" x="0px" y="0px"
	 viewBox="0 0 228.2 108.2" style="enable-background:new 0 0 228.2 108.2;" xml:space="preserve">
<style type="text/css">
	.st0{fill-rule:evenodd;clip-rule:evenodd;fill:#033878;}
</style>
<polygon class="st0" points="57.1,0 100.8,0 126.7,29.7 81.3,29.7 76.1,24.2 31.6,24.2 "/>
<polygon class="st0" points="46.5,108.2 25.5,83.8 70.6,83.8 76.6,78.1 121.8,78.1 90.2,108.2 "/>
<polygon class="st0" points="0,54.1 26,29.6 70.5,29.6 43.5,54.1 65.2,78.2 20.8,78.2 "/>
<path class="st0" d="M187,56.6l-17.5,0c-1.8-0.1-3.3-1.6-3.3-3.4c0-0.3,0-0.9,0.2-1.2l1.5-4.4c2.2-6.1,8.3-9.8,15-9.8l23.6,0
	l-1.9,5.4h-16.8c-4.4,0-8.2,1.6-9.3,5l-0.1,0.2l-0.2,0.6c-0.3,0.8-0.7,2.5-0.7,2.5l2.9,0l18.1,0c1.8,0.1,3.3,1.6,3.3,3.4
	c0,0.3,0,0.9-0.2,1.2l-1.8,5.2c-2.3,5.3-8,9.1-14.8,9.1l-24.6,0l2-5.7h18.2c4.4,0,7.3-1.6,8.4-4.5l0.4-1l0.2-0.5
	c0.3-0.8,0.4-2,0.4-2L187,56.6z"/>
<path class="st0" d="M111.5,47.7c2.1-6.1,8.3-9.8,15.1-9.8l23.7,0l-1.9,5.4h-16.9c-4.4,0-8.2,1.6-9.3,5l-4.5,13.5
	c-0.1,0.2-0.1,0.4-0.1,0.6c0,1.2,0.9,2.2,2.1,2.2h3.9c4.4,0,7.3-1.6,8.4-4.5l1.3-3.5h-6.6l1.7-5.1h17.7l-3.3,9.8
	c-2.3,5.3-8,9.1-14.8,9.1l-16.7,0l-0.4,0c-2.8,0-5.1-2.3-5.2-5.1c0-0.6,0.1-1.3,0.3-1.8L111.5,47.7z"/>
<path class="st0" d="M70.3,70.4h-0.5c-2-0.1-3.7-1.6-3.7-3.5c0-0.4,0.1-0.9,0.2-1.2l0.3-1l9.2-26.8h35.3l-1.9,5.4H86.9
	c-1.4,0-2.3,1-2.5,1.7c-0.1,0.5-2.1,6.6-2.1,6.6h18.6l-1.7,5.1H80.5c0,0-1.9,5.6-2,6c-0.3,0.8-0.2,2,1.7,2h23l-1.9,5.7L70.3,70.4z"
	/>
<path class="st0" d="M150,70.4h-0.2h-0.5c-2-0.1-3.7-1.6-3.7-3.5c0-0.4,0.1-0.9,0.2-1.2l0.3-1l0.3-0.9l8.9-25.9h11.5l-11.2,32.5H150
	z"/>

</svg>
