<svg width="74" height="18" viewBox="0 0 74 18" fill="none" xmlns="http://www.w3.org/2000/svg">
<path fill-rule="evenodd" clip-rule="evenodd" d="M7.78951 0.00111554C6.99162 0.00111554 6.30531 0.501009 6.00431 1.21649L0.162209 15.1704C-0.267227 16.1944 0.185562 17.3869 1.17158 17.8315C2.15888 18.2775 3.30576 17.8073 3.7339 16.7832L7.78951 7.09529L11.8464 16.7832C12.1461 17.4987 12.8337 18 13.6316 18C14.4321 18 15.1171 17.4987 15.4181 16.7832L19.4737 7.09529L23.5306 16.7832C23.9588 17.8073 25.1069 18.2775 26.093 17.8315C27.079 17.3869 27.5305 16.1944 27.1023 15.1704L21.2602 1.21649C20.9592 0.501009 20.2729 0.00111554 19.4737 0.00111554C18.6758 0.00111554 17.9882 0.501009 17.6885 1.21649L13.6316 10.9044L9.576 1.21649C9.27501 0.501009 8.59 0.00111554 7.78951 0.00111554ZM54.5261 0.00111554C53.7269 0.00111554 53.0406 0.501009 52.7409 1.21649L46.8988 15.1704C46.4694 16.1944 46.9221 17.3855 47.9069 17.8315C48.8942 18.2775 50.041 17.8073 50.4705 16.7832L54.5261 7.09529L58.583 16.7832C58.8827 17.4987 59.569 18 60.3682 18C61.1674 18 61.8537 17.4987 62.1534 16.7832L66.2103 7.09529L70.2659 16.7832C70.6953 17.8073 71.8422 18.2775 72.8282 17.8315C73.8155 17.3855 74.267 16.1944 73.8376 15.1704L67.9955 1.21649C67.6958 0.501009 67.0095 0.00111554 66.2103 0.00111554C65.4111 0.00111554 64.7248 0.501009 64.4251 1.21649L60.3682 10.9044L56.3113 1.21649C56.0116 0.501009 55.3253 0.00111554 54.5261 0.00111554ZM32.9443 1.21676C32.5149 0.192719 31.368 -0.277531 30.382 0.168465C29.396 0.614461 28.9432 1.80558 29.3726 2.82962L35.2147 16.7835C35.5144 17.499 36.2007 17.9989 36.9999 17.9989C37.7991 17.9989 38.4854 17.499 38.7864 16.7835L44.6272 2.82962C45.0566 1.80558 44.6051 0.614461 43.6191 0.168465C42.6318 -0.277531 41.485 0.192719 41.0568 1.21676L36.9999 10.9047L32.9443 1.21676Z" fill="#F0B323"/>
</svg>
