<svg width="58" height="86" viewBox="0 0 58 86" fill="none" xmlns="http://www.w3.org/2000/svg">
  <path d="M28.95.52h-.04C13.32.52.68 19.41.59 42.75v.03c0 .67.35 1 .8 1 .43 0 .78-.23.81-.86v-.04c0-.01.01-.02.01-.04v-.03c.05-18.7 10.18-34.44 22.67-34.44 1.39 0 2.75.2 4.07.56v7.14s10.82-3.16 20.49-2.29C40.4-.49 28.95.52 28.95.52Z" fill="#EE3224"/>
  <path d="M57.27 43.15v-.02c-.01-.66-.37-.91-.81-.91-.45 0-.81.26-.81.94 0 .03.01.05.01.08-.05 18.7-10.18 34.44-22.67 34.44-1.39 0-2.75-.2-4.07-.55v-7.14S18.1 73.15 8.43 72.28c9.04 14.28 20.49 13.27 20.49 13.27h.04c15.62 0 28.28-18.95 28.32-42.35-.01-.03-.01-.04-.01-.05Z" fill="#00674E"/>
  <path d="M29.81 27.44c0 .37-.4.66-.88.66-.49 0-.88-.3-.88-.66 0-.37.39-.66.88-.66s.88.3.88.66Z" fill="#A99A6F"/>
  <path d="M21.19 31.09a.353.353 0 0 1-.21-.33c0-.2.16-.36.36-.36.2 0 .36.16.36.36 0 .15-.09.27-.21.33l.6 1.51h.18v-1.29c0-.47.32-.86.76-.98a.489.489 0 0 1-.22-.41c0-.28.22-.5.5-.5a.495.495 0 0 1 .26.92c.42.12.73.51.73.97v1.29h.17l1.02-2.57a.495.495 0 0 1-.36-.48c0-.28.22-.5.5-.5s.5.22.5.5c0 .23-.16.41-.36.48l1.02 2.57h.05v-1.33c0-1.18.93-2.14 2.08-2.14s2.08.96 2.08 2.14v1.33h.05l1.02-2.57a.495.495 0 0 1-.36-.48c0-.28.22-.5.5-.5s.5.22.5.5c0 .23-.15.41-.36.48l1.02 2.57h.18v-1.29c0-.46.31-.84.73-.97a.5.5 0 0 1-.24-.42c0-.28.23-.5.5-.5.28 0 .5.22.5.5 0 .17-.09.32-.22.41.43.12.76.51.76.98v1.29h.18l.6-1.51a.37.37 0 0 1-.21-.33c0-.2.16-.36.36-.36.2 0 .36.16.36.36 0 .15-.09.27-.21.33l.6 1.51h.38l-.07-.42c-.55-3-2.73-5.45-5.61-6.48l-.06-.02h-2.32a.79.79 0 0 0 .01-.94.808.808 0 0 0-.67-.35c-.04 0-.1 0-.14.01l-.64-.92.49-.34a.566.566 0 0 0 .5-.07c.16-.11.24-.29.24-.47a.575.575 0 0 0-.57-.58c-.11 0-.23.03-.32.1a.58.58 0 0 0-.25.45l-.49.34-.49-.71a.566.566 0 0 0-.54-.75.575.575 0 0 0-.47.9c.11.15.28.24.45.24l.49.71-.49.34a.582.582 0 0 0-.51.07.575.575 0 0 0 .32 1.05c.11 0 .23-.03.32-.1.16-.11.24-.28.25-.45l.49-.34.64.92c-.08.13-.12.27-.12.41 0 .16.05.32.14.46 0 .01.01.01.02.02h-2.32l-.02.02c-2.88 1.03-5.06 3.48-5.61 6.48l-.08.42h.38l.6-1.51Zm10.52-4.7h.07c1.3.48 2.44 1.28 3.32 2.29.03.02.04.06.04.09 0 .07-.06.13-.13.13-.04 0-.07-.02-.1-.04-.91-.72-2-1.27-3.2-1.61v-.86Zm-.71 0 .01 3.01a2.73 2.73 0 0 0-2.08-.97c-.84 0-1.57.38-2.08.97l-.01-3.01H31Zm-8.25 2.29a8.088 8.088 0 0 1 3.32-2.3h.06v.87c-1.2.34-2.29.9-3.19 1.61-.02.02-.05.04-.09.04-.08 0-.13-.06-.13-.13 0-.03.01-.06.03-.09Zm-2.61 4.64v2.95h17.58v-2.95H20.14Zm1.78 2.24h-1.08v-1.54h1.08v1.54Zm2.04-.54c0 .32-.29.59-.64.59-.36 0-.65-.27-.65-.59v-.46c0-.32.29-.59.65-.59.36 0 .64.27.64.59v.46Zm2.21.54h-1.5v-1.54h1.5v1.54Zm3.81-.01c-.27.12-.64.2-1.04.2-.41 0-.77-.07-1.05-.19-.27-.12-.47-.27-.47-.49.01-.56.67-1.27 1.52-1.28.85.01 1.51.72 1.52 1.28-.02.21-.22.36-.48.48Zm3.19.01h-1.5v-1.54h1.5v1.54Zm2-.54c0 .32-.29.59-.65.59-.36 0-.65-.27-.65-.59v-.46c0-.32.29-.59.65-.59.36 0 .65.27.65.59v.46Zm1.82.54h-1.08v-1.54h1.08v1.54Z" fill="#A99A6F"/>
  <path d="M28.57 37.7h-9.26v3.32h9.26V37.7ZM28.58 55.6h-8.81c.38 1.04 1.09 2.24 2.36 3.32h6.45V55.6ZM28.57 43.65h-9.26v3.32h9.26v-3.32ZM19.31 52.82s0 .05-.01.12h9.27v-3.32h-9.26V52.82ZM38.12 55.52c.03-.08.05-.16.08-.24-.02.08-.05.16-.08.24ZM34.53 59.79c.04-.03.08-.05.12-.08-.04.03-.08.06-.12.08ZM37.89 56.09c.03-.06.06-.12.08-.18-.02.06-.05.12-.08.18ZM33.69 60.26c.07-.04.14-.07.21-.11-.07.04-.14.08-.21.11ZM36.51 58.17c.03-.03.06-.06.08-.1-.02.04-.05.07-.08.1ZM31.02 55.07c.06-.25.15-.58.3-.84h5.13c.15.26.24.59.3.84.2-.12.43-.4.68-.4.24 0 .58.07.88.18-.02.08-.05.17-.07.25.25-.86.3-1.58.3-1.97 0-.21-.01-.32-.02-.35V37.7h-9.26v17.23c.33-.17.72-.25 1.06-.25.27-.01.51.27.7.39Zm5.43-3.3c-.18.73-.36 1.76-.36 1.76h-4.4s-.18-1.03-.36-1.76c-.06-.24-.13-.5-.2-.7.03-.02.27-.03.31-.03.13 0 .23.11.27.27 0 0 .03.18.08.12 0 0 0-.01.01-.01.05-.11.14-.18.24-.18.16 0 .28.18.28.39 0 .22-.12.4-.28.4-.04 0-.07-.01-.11-.03-.02.06-.03.14-.02.2.01.13-.02.62.42.54.18-.04.23-.19.23-.19s.05-.12.15-.01c.06.07.23.27.47.18.23-.09.45-.43.47-.66 0 0 .07-.52-.41-.2h-.01a.44.44 0 0 1-.22.07c-.23 0-.42-.19-.42-.42 0-.23.19-.42.42-.42.07 0 .13.02.2.05 0 0 .31.18.4 0 .05-.11-.02-.24-.07-.36a.488.488 0 0 1-.03-.07c0-.01-.01-.02-.01-.03 0 0 0-.01-.01-.02v-.08c0-.23.19-.42.42-.42.23 0 .42.19.42.42 0 .02 0 .03-.01.04v.06c0 .01-.01.02-.01.03-.01.03-.02.05-.03.07-.05.11-.12.25-.07.36.09.18.4 0 .4 0a.422.422 0 0 1 .62.37c0 .23-.19.42-.42.42a.39.39 0 0 1-.23-.07h-.01c-.47-.32-.41.2-.41.2.01.22.23.57.46.66.24.09.41-.11.47-.18.1-.11.16.01.16.01s.05.14.22.19c.43.08.41-.41.42-.54.01-.07-.01-.14-.02-.2-.03.02-.07.03-.11.03-.16 0-.28-.18-.28-.4 0-.22.13-.39.28-.39.1 0 .19.07.24.18l.01.01c.04.07.07-.12.07-.12.04-.16.14-.27.27-.27.04 0 .28.01.31.03-.08.2-.14.46-.21.7Zm-6.12-5.26H33v-3.32h-1.99v-1.6H33v-2.77h1.78v2.77h1.99v1.6h-1.99v3.32h2.67v1.6h-2.67v1.81a1.14 1.14 0 0 0-.81-.46H33.78c-.32.03-.6.21-.79.45V48.1h-2.67v-1.59h.01ZM37.66 56.57l.09-.18-.09.18ZM35.3 59.27c.05-.04.1-.07.14-.11-.04.03-.09.07-.14.11ZM35.9 58.77c.04-.04.09-.07.13-.11-.04.04-.08.07-.13.11ZM36.93 57.68c.04-.05.08-.1.11-.15-.03.05-.07.1-.11.15ZM37.35 57.09c.02-.03.04-.07.06-.1-.02.03-.04.07-.06.1Z" fill="#EE3224"/>
  <path d="M39.25 52.75V37H18.61v15.78c-.01.05-.02.18-.02.37-.02 1.32.48 5.8 6.15 8.18 1.51.6 2.11.59 4.1 1.23l.09.02.1-.02s2.58-.63 4.09-1.23c5.67-2.38 6.17-6.86 6.15-8.18-.01-.25-.02-.39-.02-.4Zm-19.95.39c0-.21.01-.32.01-.32V37.7h9.26v24.02c-1.66-.5-2.27-.55-3.56-1.06-5.34-2.26-5.7-6.33-5.71-7.52Zm13.54 7.52c-1.29.51-1.9.56-3.56 1.06V37.7h9.26v15.08c0 .04.02.14.02.35-.02 1.2-.37 5.27-5.72 7.53Z" fill="#A99A6F"/>
  <path d="M33.89 53.53h2.2s.18-1.03.36-1.76c.06-.24.13-.5.2-.7-.03-.02-.27-.03-.31-.03-.12 0-.23.11-.27.27 0 0-.03.18-.07.12l-.01-.01c-.05-.11-.14-.18-.24-.18-.16 0-.28.18-.28.39 0 .22.13.4.28.4.04 0 .07-.01.11-.03.02.06.03.14.02.2-.01.13.02.62-.42.54-.18-.04-.22-.19-.22-.19s-.05-.12-.16-.01c-.06.07-.23.27-.47.18-.23-.09-.46-.43-.46-.66 0 0-.07-.52.41-.2h.01a.418.418 0 0 0 .65-.35.423.423 0 0 0-.62-.37s-.31.18-.4 0c-.05-.11.02-.24.07-.36.01-.02.02-.04.03-.07 0-.01 0-.02.01-.03v-.06c0-.01.01-.03.01-.04 0-.23-.19-.42-.42-.42-.23 0-.42.19-.42.42v.08c0 .01 0 .01.01.02 0 .01.01.02.01.03.01.03.02.05.03.07.05.11.11.25.07.36-.08.18-.4 0-.4 0a.423.423 0 0 0-.62.37c0 .23.19.42.42.42.08 0 .16-.02.22-.07h.01c.47-.32.41.2.41.2-.01.22-.23.57-.47.66-.23.09-.4-.11-.47-.18-.1-.11-.15.01-.15.01s-.05.14-.23.19c-.43.08-.4-.41-.42-.54-.01-.07 0-.14.02-.2.03.02.07.03.11.03.16 0 .28-.18.28-.4 0-.22-.12-.39-.28-.39-.1 0-.19.07-.24.18l-.01.01c-.04.07-.08-.12-.08-.12-.04-.16-.14-.27-.27-.27-.04 0-.28.01-.31.03.07.2.14.46.2.7.18.73.36 1.76.36 1.76h2.21Z" fill="#A99A6F"/>
  <path d="M38.32 54.86c-.3-.11-.64-.18-.88-.18-.25 0-.48.28-.68.4-.06-.25-.15-.58-.3-.84h-5.13c-.15.26-.24.59-.3.84-.2-.12-.43-.4-.68-.4-.34 0-.73.09-1.06.25v6.79c1.66-.5 2.27-.55 3.56-1.06 3.74-1.58 5.03-4.05 5.47-5.8Z" fill="#00674E"/>
</svg>
