<svg width="77" height="62" viewBox="0 0 77 62" fill="none" xmlns="http://www.w3.org/2000/svg">
<path d="M18.166 34.572C15.402 34.213 12.573 33.846 10.046 33.518C10.147 34.863 10.326 36.185 10.594 37.476C11.423 37.178 12.384 36.928 13.342 36.882C14.401 36.83 16.648 37.278 18.893 37.811C18.575 36.762 18.331 35.682 18.166 34.572ZM70.316 22.502C68.722 23.836 66.852 25.32 64.661 26.979C64.542 27.069 64.39 27.174 64.261 27.267C66.264 28.302 69.202 29.822 71.563 31.043C71.549 28.078 71.112 25.214 70.316 22.502V22.502ZM40.759 8.349C46.775 8.349 52.244 10.678 56.323 14.478C57.428 13.7 58.155 13.188 58.155 13.188C59.99 11.906 61.697 10.922 63.27 10.168C57.647 4.15 49.645 0.384003 40.76 0.384003C26.265 0.384003 14.114 10.398 10.831 23.884C11.952 23.828 15.187 23.668 19.26 23.465C22.426 14.653 30.855 8.349 40.759 8.349V8.349ZM68.973 39.535C68.973 39.535 65.997 39.325 62.214 39.056C59.009 47.8 50.612 54.038 40.759 54.038C36.503 54.038 32.52 52.871 29.109 50.842C28.571 50.842 28.127 50.816 27.965 50.801C27.965 50.801 23.928 50.504 22.948 50.43C22.479 50.676 21.874 50.999 21.874 50.999C21.241 51.344 19.603 52.235 18.012 51.968C23.646 58.133 31.75 62 40.759 62C54.888 62 66.786 52.488 70.419 39.519C69.901 39.558 69.402 39.566 68.973 39.535V39.535Z" fill="#C8D400"/>
<path d="M74.451 34.961L60.097 27.538C61.337 26.723 62.44 25.959 63.363 25.261C72.885 18.051 80.788 10.701 74.733 10.377C74.733 10.377 69.046 8.20499 59.388 14.953C55.91 17.383 51.002 20.847 46.143 24.287L10.509 26.056C9.50697 26.105 7.93697 26.481 7.01997 26.888L1.61097 29.293C0.69397 29.7 0.75797 30.14 1.75297 30.269L32.152 34.217C30.212 35.597 29.021 36.445 29.021 36.445C29.021 36.445 24.814 40.28 23.891 41.344C22.968 42.408 15.386 38.941 13.444 39.032C11.503 39.125 9.32997 40.419 9.32997 40.419L13.676 43.839L15.245 45.263L11.983 45.363C10.98 45.391 9.57197 45.675 8.85497 45.99C8.13797 46.305 8.36597 46.665 9.36097 46.786L17.462 47.777C17.497 47.78 17.537 47.78 17.573 47.785C17.398 48.706 17.242 51.08 20.84 49.109C21.217 48.903 21.779 48.606 22.488 48.236L28.123 48.654C29.124 48.726 30.248 48.676 30.62 48.537C30.993 48.401 30.551 47.946 29.64 47.527L26.61 46.136C26.597 46.128 26.583 46.125 26.57 46.122C31.641 43.498 39.064 39.649 46.135 35.752L69.126 37.387C70.126 37.458 71.725 37.256 72.675 36.937L74.341 36.377C75.293 36.059 75.343 35.422 74.451 34.961V34.961Z" fill="#168390"/>
</svg>
