<svg width="427" height="393" viewBox="0 0 427 393" fill="none" xmlns="http://www.w3.org/2000/svg">
  <path d="M215.696 120.095c6.104.956 7.333-.319 8.153-6.104a136.977 136.977 0 0 1 11.89-38.902c8.017-16.399 20.68-34.438 38.537-46.554a191.598 191.598 0 0 1 58.58-25.19A141.775 141.775 0 0 1 375.584.52c25.692 2.323 39.904 9.657 47.056 19.132 2.368 3.143 3.78 6.924 4.099 10.887.228 4.737-1.822 10.887-8.655 16.9-6.787 6.058-20.68 13.21-39.858 19.633-19.906 6.605-47.101 13.62-74.25 19.86a422.383 422.383 0 0 0-46.463 13.347c-17.948 6.104-23.369 23.961-12.208 29.427 12.572 6.15 24.279 13.848 34.938 22.867a309.421 309.421 0 0 1 46.555 45.78c16.899 20.636 44.55 59.993 54.435 98.211 11.023 41.954 4.145 81.721-19.588 92.836-23.277 10.932-54.298-4.829-76.072-27.468-20.681-21.364-35.167-46.646-48.832-85.456-11.798-33.572-16.536-81.995-16.536-107.413 0-8.472 0-10.249.228-17.902.774-6.65-17.173-12.208-36.442.228-21.956 14.121-43.411 39.676-56.12 54.572-5.512 6.514-13.028 16.034-20.954 26.01-10.477 13.119-22.002 26.785-32.525 34.438-15.76 11.251-41.224 16.125-59.126 3.462-9.93-7.061-15.26-20.453-15.26-34.074a51.78 51.78 0 0 1 7.015-26.784c6.104-10.477 15.76-21.729 31.385-34.62a274.68 274.68 0 0 1 67.6-38.537c39.311-15.807 81.629-20.772 109.69-15.761Z" fill="#01ACFA"/>
</svg>
